<svg width="24" height="24" viewBox="0 0 24 24" fill="none" xmlns="http://www.w3.org/2000/svg">
<path d="M3.66552 11.1117C3.25132 11.1129 2.8459 11.2313 2.49618 11.4533C2.14646 11.6752 1.86673 11.9917 1.68935 12.366C1.51197 12.7403 1.44419 13.1571 1.49385 13.5684C1.54351 13.9796 1.70858 14.3683 1.96997 14.6897L7.54213 21.5155C7.7408 21.7622 7.99547 21.958 8.28498 22.0865C8.57449 22.215 8.89048 22.2726 9.20671 22.2544C9.88305 22.2181 10.4937 21.8563 10.883 21.2614L22.4578 2.62025C22.4596 2.61716 22.4616 2.61407 22.4637 2.61102C22.5723 2.44427 22.537 2.11381 22.3129 1.90621C22.2513 1.8492 22.1787 1.8054 22.0996 1.77751C22.0204 1.74961 21.9364 1.73822 21.8527 1.74403C21.7689 1.74983 21.6873 1.77272 21.6128 1.81127C21.5382 1.84982 21.4724 1.90322 21.4192 1.96819C21.4151 1.9733 21.4108 1.97833 21.4064 1.98328L9.73309 15.1724C9.68868 15.2226 9.63473 15.2634 9.57438 15.2926C9.51404 15.3218 9.4485 15.3387 9.38158 15.3423C9.31465 15.3459 9.24768 15.3362 9.18454 15.3137C9.1214 15.2912 9.06336 15.2564 9.01379 15.2113L5.13963 11.6858C4.73727 11.3169 4.21137 11.1121 3.66552 11.1117Z" fill="#7CA32A"/>
</svg>
