<svg width="24" height="24" viewBox="0 0 24 24" fill="none" xmlns="http://www.w3.org/2000/svg">
<path d="M16.1667 17C15.9167 17 15.75 16.9167 15.5833 16.75L7.25 8.41667C6.91667 8.08333 6.91667 7.58333 7.25 7.25C7.58333 6.91667 8.08333 6.91667 8.41667 7.25L16.75 15.5833C17.0833 15.9167 17.0833 16.4167 16.75 16.75C16.5833 16.9167 16.4167 17 16.1667 17Z" fill="white"/>
<path d="M16.1666 17.0002H8.66665C8.16665 17.0002 7.83331 16.6668 7.83331 16.1668C7.83331 15.6668 8.16665 15.3335 8.66665 15.3335H15.3333V8.66683C15.3333 8.16683 15.6666 7.8335 16.1666 7.8335C16.6666 7.8335 17 8.16683 17 8.66683V16.1668C17 16.6668 16.6666 17.0002 16.1666 17.0002Z" fill="white"/>
</svg>
