<svg width="40" height="40" viewBox="0 0 40 40" fill="none" xmlns="http://www.w3.org/2000/svg">
<g clip-path="url(#clip0_2001_134)">
<path d="M31.7041 23.5781L34.2227 22.2588L35.8115 24.748V26.959L36.5 28.5L38 29.1855L37.5 31.5L35.8115 33L36 35L34 37H31.5L30.5 38.5H27.5L26 36.5L24 37L22 35L22.5 32.5L20.5 31V28.5L22.9492 27.0859L22.1738 24.748L24.5078 23.1885L26.8467 23.5781L27.9258 21H30.4443L31.7041 23.5781ZM29.1846 25.917C27.0321 25.917 25.2873 27.662 25.2871 29.8145C25.2871 31.9671 27.032 33.7128 29.1846 33.7129C31.3372 33.7129 33.082 31.9671 33.082 29.8145C33.0819 27.6619 31.3371 25.917 29.1846 25.917Z" fill="#B9E640"/>
<path d="M8.7275 16.8203C8.7275 16.5182 8.97242 16.2734 9.27445 16.2734H22.6371C22.9392 16.2734 23.1841 16.5183 23.1841 16.8203C23.1841 17.1224 22.9391 17.3673 22.6371 17.3673H9.27445C8.97234 17.3673 8.7275 17.1224 8.7275 16.8203ZM5.10477 20.9968C5.5832 21.1259 6.17867 21.2866 6.34641 21.5028C6.50031 21.7012 6.46836 21.8422 6.42328 21.9429C6.30781 22.2009 5.92203 22.4808 5.40797 22.5167C5.07125 22.5401 4.43617 22.465 3.9557 21.6986C3.79531 21.4427 3.45766 21.3652 3.20172 21.5257C2.94578 21.6862 2.86828 22.0238 3.02883 22.2797C3.44508 22.9438 4.03227 23.3796 4.70141 23.5422V24.1174C4.70141 24.4195 4.94633 24.6643 5.24836 24.6643C5.55039 24.6643 5.79531 24.4194 5.79531 24.1174V23.567C6.52727 23.4253 7.15922 22.9767 7.4218 22.3898C7.65359 21.8717 7.57672 21.3041 7.2107 20.8322C6.81789 20.326 6.09188 20.1301 5.38969 19.9407C4.91258 19.8119 4.31883 19.6517 4.15273 19.4375C3.99813 19.2378 4.03039 19.096 4.0757 18.9948C4.19117 18.7369 4.57664 18.4571 5.09 18.4211C5.13109 18.4182 5.1768 18.417 5.22602 18.4182C5.23344 18.4185 5.24078 18.4192 5.24828 18.4192H5.24938C5.60281 18.4332 6.13 18.581 6.54344 19.2395C6.70414 19.4953 7.04172 19.5725 7.29758 19.4119C7.55344 19.2513 7.63063 18.9136 7.47 18.6578C7.05289 17.9935 6.46492 17.5575 5.79531 17.3953V16.8205C5.79531 16.5184 5.55039 16.2735 5.24836 16.2735C4.94633 16.2735 4.70141 16.5185 4.70141 16.8205V17.3713C3.9707 17.5132 3.33984 17.9617 3.07734 18.5478C2.84516 19.0664 2.92188 19.6349 3.28805 20.1077C3.67938 20.6124 4.40406 20.8078 5.10477 20.997V20.9968ZM9.27445 21.0169H22.6371C22.9392 21.0169 23.1841 20.772 23.1841 20.47C23.1841 20.1679 22.9391 19.923 22.6371 19.923H9.27445C8.97234 19.923 8.7275 20.1679 8.7275 20.47C8.7275 20.772 8.97242 21.0169 9.27445 21.0169ZM18.0065 27.2177H3.18883C2.88672 27.2177 2.64187 27.4626 2.64187 27.7646C2.64187 28.0667 2.8868 28.3116 3.18883 28.3116H18.0066C18.3087 28.3116 18.5535 28.0667 18.5535 27.7646C18.5535 27.4626 18.3086 27.2177 18.0066 27.2177H18.0065ZM18.0065 30.8673H3.18883C2.88672 30.8673 2.64187 31.1122 2.64187 31.4142C2.64187 31.7163 2.8868 31.9612 3.18883 31.9612H18.0066C18.3087 31.9612 18.5535 31.7163 18.5535 31.4142C18.5535 31.1122 18.3086 30.8673 18.0066 30.8673H18.0065ZM18.0065 34.5147H3.18883C2.88672 34.5147 2.64187 34.7596 2.64187 35.0617C2.64187 35.3637 2.8868 35.6086 3.18883 35.6086H18.0066C18.3087 35.6086 18.5535 35.3637 18.5535 35.0617C18.5535 34.7596 18.3086 34.5147 18.0066 34.5147H18.0065ZM38.2963 28.3471V31.6624C38.2963 31.9645 38.0514 32.2093 37.7494 32.2093H36.6017C36.4409 32.7631 36.2206 33.2954 35.9434 33.7999L36.7542 34.6107C36.9677 34.8242 36.9678 35.1704 36.7544 35.384L34.4113 37.7292C34.3088 37.8319 34.1696 37.8896 34.0245 37.8896C33.8794 37.8896 33.7402 37.8321 33.6376 37.7294L32.8251 36.9169C32.3223 37.1938 31.7898 37.4141 31.234 37.575V38.7246C31.234 39.0267 30.9891 39.2715 30.687 39.2715H27.3718C27.0697 39.2715 26.8248 39.0266 26.8248 38.7246V37.575C26.6848 37.5345 26.5462 37.4901 26.4092 37.4421C26.2803 38.4634 25.4069 39.256 24.3512 39.256H1.7782C0.633984 39.256 -0.296875 38.3252 -0.296875 37.181V8.56441C-0.296875 7.42019 0.633984 6.48933 1.7782 6.48933H2.94531V3.26269C2.94531 2.59714 3.4857 2.05573 4.15 2.05573H5.93711C6.60266 2.05573 7.14406 2.59714 7.14406 3.26269V3.38667L8.90852 3.35128C9.14898 3.25323 9.76812 3.0194 10.5347 2.86956C12.016 1.10769 14.4632 -0.02497 16.7527 1.3198L19.0639 2.60792C19.2362 2.15151 19.6763 1.82542 20.1923 1.82542H21.9772C22.6427 1.82542 23.1841 2.36683 23.1841 3.03237V6.48933H24.3512C25.4954 6.48933 26.4263 7.42019 26.4263 8.56441V22.56C26.5578 22.5141 26.6907 22.4715 26.8249 22.4325V21.2849C26.8249 20.9828 27.0698 20.7379 27.3719 20.7379H30.6871C30.9892 20.7379 31.2341 20.9828 31.2341 21.2849V22.4324C31.7874 22.5929 32.3199 22.8133 32.825 23.091L33.638 22.2796C33.8516 22.0664 34.1977 22.0665 34.4112 22.28L36.7542 24.6231C36.8568 24.7257 36.9145 24.8648 36.9145 25.0099C36.9145 25.155 36.8568 25.2941 36.7542 25.3967L35.9431 26.2078C36.2209 26.7142 36.4414 27.2472 36.6019 27.8002H37.7494C38.0515 27.8002 38.2963 28.0451 38.2963 28.3471ZM20.0794 3.49526V11.0403C20.0794 11.1016 20.1311 11.1533 20.1923 11.1533H21.9773C22.0385 11.1533 22.0902 11.1016 22.0902 11.0403V3.03245C22.0902 2.9712 22.0385 2.91948 21.9773 2.91948H20.1923C20.1311 2.91948 20.0794 2.9712 20.0794 3.03245V3.49526ZM11.6136 3.30425C10.6435 4.32159 10.3898 5.29167 10.4965 5.47722C10.5488 5.49675 11.2716 5.69855 13.7502 3.86394C13.8717 3.77409 14.025 3.73855 14.1735 3.76542C14.3222 3.79245 14.453 3.8798 14.535 4.00667L18.4282 10.0304H18.9852V3.81659L16.2142 2.27222C16.2104 2.27011 16.2066 2.26792 16.2028 2.26573C14.0645 1.00581 12.1494 2.74206 11.6134 3.30417L11.6136 3.30425ZM7.14406 4.48097V10.0706L8.13867 10.055H8.14734C8.37297 10.055 8.57578 10.1936 8.65742 10.4046C9.31859 12.1136 10.1158 13.1745 10.902 13.3917C11.0952 13.445 11.269 13.441 11.4144 13.4137L10.307 11.6025C10.1495 11.3448 10.2306 11.0082 10.4884 10.8506C10.7462 10.693 11.0828 10.7742 11.2404 11.032L12.6013 13.258C12.9015 13.4368 13.1821 13.5018 13.4362 13.449C13.6377 13.4071 13.8038 13.2985 13.9245 13.1942L12.2623 10.4729C12.1048 10.2151 12.1862 9.87847 12.444 9.72097C12.7018 9.56347 13.0384 9.6448 13.1959 9.90261L14.9904 12.8403C15.2832 12.9829 15.5236 13.0228 15.6752 12.9517C15.8146 12.8864 15.9086 12.722 15.963 12.5849L14.033 9.45401C13.8745 9.19683 13.9544 8.85987 14.2116 8.70136C14.4688 8.54269 14.8057 8.62276 14.9642 8.87995L16.8852 11.9961C17.2423 12.0279 17.5013 11.9755 17.6109 11.8447C17.793 11.6275 17.7209 11.0989 17.6336 10.8166L13.9287 5.08425C11.7936 6.5837 10.4118 6.96175 9.71203 6.24144C9.28914 5.80612 9.28266 5.07769 9.65352 4.24042C9.40266 4.32769 9.24953 4.39472 9.24617 4.3962C9.17977 4.42558 9.10766 4.44175 9.03508 4.44323L7.14391 4.4812L7.14406 4.48097ZM4.03922 11.2707C4.03922 11.3308 4.09102 11.3836 4.14992 11.3836H5.93703C5.99719 11.3836 6.05 11.3308 6.05 11.2707V3.26276C6.05 3.20362 5.99617 3.1498 5.93703 3.1498H4.14992C4.09195 3.1498 4.03922 3.20362 4.03922 3.26276V11.2707ZM25.3323 36.9695C25.2995 36.9521 25.2666 36.9351 25.2342 36.9172L24.424 37.7292C24.3214 37.8319 24.1823 37.8897 24.037 37.8898H24.0368C23.8917 37.8898 23.7526 37.8322 23.65 37.7296L21.3048 35.3843C21.2021 35.2817 21.1445 35.1425 21.1445 34.9973C21.1445 34.8521 21.2023 34.7129 21.3052 34.6104L22.1171 33.8C21.8408 33.2982 21.6206 32.7657 21.4595 32.2094H20.3097C20.0076 32.2094 19.7627 31.9645 19.7627 31.6625V28.3472C19.7627 28.0451 20.0077 27.8003 20.3097 27.8003H21.4584C21.618 27.2468 21.8385 26.7142 22.1172 26.2091L21.3048 25.3967C21.2023 25.2941 21.1446 25.1549 21.1446 25.0098C21.1446 24.8834 21.1885 24.7615 21.2676 24.6644H9.27453C8.97242 24.6644 8.72758 24.4195 8.72758 24.1175C8.72758 23.8154 8.9725 23.5705 9.27453 23.5705H22.3585L23.6502 22.28C23.8639 22.0665 24.2102 22.0666 24.4237 22.2801L25.2345 23.0909C25.2669 23.0731 25.2997 23.0562 25.3323 23.0388V8.56441C25.3323 8.02347 24.8923 7.58331 24.3512 7.58331H23.1842V11.0403C23.1842 11.7058 22.6428 12.2472 21.9773 12.2472H20.1923C19.5552 12.2472 19.0332 11.7507 18.9897 11.1244H18.8048C18.8487 11.5664 18.8063 12.1215 18.4495 12.5473C18.1168 12.9442 17.6086 13.1281 16.9347 13.096C16.8002 13.3901 16.562 13.7399 16.1505 13.937C15.7395 14.1339 15.2683 14.1301 14.7455 13.9267C14.5098 14.1547 14.146 14.4186 13.659 14.52C13.5241 14.548 13.3886 14.562 13.2525 14.562C12.9066 14.562 12.5572 14.4715 12.2079 14.2914C11.8326 14.4764 11.2724 14.6187 10.6434 14.4548C9.53594 14.166 8.57352 13.0564 7.78 11.1546L7.14414 11.1646V11.2705C7.14414 11.936 6.60273 12.4775 5.93719 12.4775H4.15008C3.48578 12.4775 2.94539 11.936 2.94539 11.2705V7.58323H1.77828C1.23734 7.58323 0.797187 8.02331 0.797187 8.56433V37.181C0.797187 37.7219 1.23727 38.1621 1.77828 38.1621H24.3514C24.8923 38.1621 25.3325 37.722 25.3325 37.181V36.9693L25.3323 36.9695ZM37.2023 28.8942H36.1792C35.9245 28.8942 35.7035 28.7184 35.6463 28.4702C35.478 27.741 35.1911 27.0472 34.7935 26.4083C34.6591 26.1924 34.6913 25.9124 34.8712 25.7325L35.5938 25.0099L34.024 23.44L33.2991 24.1635C33.119 24.3432 32.8387 24.375 32.623 24.2403C31.987 23.8433 31.2943 23.5566 30.5641 23.3881C30.3159 23.3308 30.1401 23.1098 30.1401 22.8551V21.832H27.9188V22.8551C27.9188 23.1097 27.7432 23.3306 27.4952 23.388C26.7635 23.5573 26.0706 23.8441 25.4359 24.2403C25.2198 24.3751 24.9395 24.3432 24.7594 24.1631L24.0366 23.4402L23.137 24.3389C23.0819 24.4629 22.9823 24.5625 22.8582 24.6174L22.4652 25.01L23.19 25.7348C23.3704 25.9152 23.4021 26.1962 23.2666 26.4123C22.8679 27.0477 22.5815 27.7396 22.4153 28.4688C22.3585 28.7177 22.1372 28.8942 21.882 28.8942H20.8566V31.1154H21.882C22.1366 31.1154 22.3574 31.291 22.4148 31.539C22.5854 32.2759 22.872 32.9683 23.2666 33.5973C23.4023 33.8135 23.3703 34.0949 23.1896 34.2752L22.4655 34.9979L24.0363 36.5688L24.759 35.8446C24.9393 35.664 25.2206 35.632 25.4369 35.7677C26.0671 36.1631 26.7595 36.4496 27.4948 36.6192C27.743 36.6765 27.9188 36.8975 27.9188 37.1522V38.1776H30.14V37.1522C30.14 36.8975 30.3158 36.6765 30.564 36.6192C31.2993 36.4496 31.9916 36.1631 32.6219 35.7677C32.838 35.6321 33.119 35.6639 33.2994 35.8442L34.0241 36.5689L35.594 34.9977L34.8711 34.2748C34.691 34.0948 34.6591 33.8143 34.7938 33.5984C35.1901 32.9635 35.4769 32.2707 35.6462 31.5391C35.7036 31.291 35.9245 31.1154 36.1791 31.1154H37.2022V28.8942H37.2023ZM32.5665 26.4678C34.4716 28.3729 34.4716 31.4728 32.5665 33.3779C31.6139 34.3305 30.3627 34.8068 29.1114 34.8068C27.8602 34.8068 26.6089 34.3305 25.6563 33.3779C23.7512 31.4728 23.7512 28.3729 25.6563 26.4678C27.5615 24.5626 30.6613 24.5626 32.5665 26.4678ZM31.793 27.2413C31.0537 26.5021 30.0824 26.1324 29.1115 26.1324C28.1405 26.1324 27.1694 26.5019 26.4299 27.2413C24.9513 28.7199 24.9513 31.1257 26.4299 32.6043C27.9086 34.0829 30.3143 34.0829 31.793 32.6043C33.2715 31.1257 33.2715 28.7199 31.793 27.2413Z" fill="black"/>
</g>
<defs>
<clipPath id="clip0_2001_134">
<rect width="40" height="40" fill="white"/>
</clipPath>
</defs>
</svg>
