<svg width="40" height="40" viewBox="0 0 40 40" fill="none" xmlns="http://www.w3.org/2000/svg">
<g clip-path="url(#clip0_2001_69)">
<path d="M21.5 2L27 3.5L31 6.5L25.5 12.5L21 11L21.5 2Z" fill="#B9E640"/>
<path d="M32.0682 33.3275L27.244 36.3652L21.5 38.0001L21.6278 29.1744L25.7757 26.8734L32.0682 33.3275Z" fill="#B9E640"/>
<path fill-rule="evenodd" clip-rule="evenodd" d="M20.1059 22.8583V23.4984C20.1059 23.8004 19.8611 24.0452 19.559 24.0452C19.257 24.0452 19.0122 23.8004 19.0122 23.4984V22.8624H18.3354C18.0333 22.8624 17.7885 22.6176 17.7885 22.3155C17.7885 22.0135 18.0333 21.7687 18.3354 21.7687H19.9865C20.5594 21.7687 20.8683 21.0677 20.4497 20.6491C20.3305 20.5298 20.1665 20.4558 19.9865 20.4558H19.2328C17.6897 20.4558 16.8898 18.5758 17.9964 17.4692C18.2642 17.2014 18.6182 17.0194 19.0122 16.9694V16.3196C19.0122 16.0176 19.2571 15.7727 19.5591 15.7727C19.8612 15.7727 20.106 16.0176 20.106 16.3196V16.9555H20.884C21.1861 16.9555 21.4309 17.2004 21.4309 17.5024C21.4309 17.8044 21.1861 18.0493 20.884 18.0493H19.2329C18.6601 18.0493 18.3511 18.7502 18.7697 19.1689C18.889 19.2881 19.0529 19.3622 19.2329 19.3622H19.9866C21.5297 19.3622 22.3297 21.2423 21.2231 22.3487C20.9324 22.6393 20.5404 22.8287 20.1059 22.8583ZM17.7944 38.7013L18.3883 38.7543V28.4223L17.9397 28.3399C13.945 27.6061 11.004 24.1129 11.004 20.0001C11.004 15.8873 13.9449 12.3941 17.9397 11.6602L18.3883 11.5778V1.24585L17.7944 1.29882C8.15537 2.15897 0.702637 10.2614 0.702637 20.0001C0.702637 29.7388 8.15545 37.8413 17.7944 38.7013ZM6.41959 31.9262C9.19139 34.9598 13.0055 37.0241 17.2946 37.5529V29.3186C13.0047 28.3149 9.91022 24.4689 9.91022 20.0001C9.91022 15.5313 13.0047 11.6852 17.2946 10.6816V2.44733C8.49318 3.53233 1.79631 11.0336 1.79631 20.0001C1.79631 24.5976 3.54795 28.7834 6.41959 31.9262ZM32.7133 33.3244C29.6194 36.3961 25.5704 38.3088 21.1704 38.7013L20.5765 38.7543V28.4223L21.0251 28.3399C22.7042 28.0315 24.2307 27.2259 25.4356 26.038L25.8218 25.6573L33.1024 32.938L32.7133 33.3244ZM26.9437 36.0388C28.6445 35.2464 30.1969 34.1932 31.5491 32.9313L25.8033 27.1855C24.6272 28.2204 23.2077 28.9587 21.6702 29.3186V37.5529C23.5299 37.3233 25.3034 36.8031 26.9437 36.0388ZM35.4208 8.5764L35.0404 8.08093L27.6798 15.4415L27.8863 15.8033C28.9133 17.6029 29.2442 19.7369 28.8096 21.7769C28.6344 22.5991 28.4289 23.0863 28.104 23.8106L35.5561 31.2627L35.9291 30.7279C40.6016 24.0282 40.3956 15.0554 35.4208 8.5764ZM37.2707 14.3169C36.7119 12.6696 35.9169 11.1312 34.926 9.74187L29.0344 15.6334C30.2975 18.0911 30.4332 20.9955 29.4019 23.562L35.4004 29.5605C38.3017 25.053 39.0002 19.416 37.2707 14.3169ZM21.1704 1.2989C25.2723 1.66491 29.0812 3.35694 32.0926 6.08812L32.5183 6.47413L25.2387 13.7538C24.486 13.1366 23.9857 12.7405 23.0509 12.3063C22.1416 11.8839 21.529 11.7529 20.5765 11.5779V1.24585L21.1704 1.2989ZM26.5808 3.79569C28.1662 4.49093 29.6294 5.41132 30.9298 6.51608L25.1542 12.2917C24.1148 11.5251 22.9369 10.9773 21.6703 10.6814V2.44718C23.3947 2.65999 25.044 3.12171 26.5808 3.79569ZM19.6097 12.7526C15.6575 12.7526 12.4533 15.9568 12.4533 19.909C12.4533 23.8612 15.6575 27.0653 19.6097 27.0653C23.5619 27.0653 26.766 23.8612 26.766 19.909C26.766 15.9568 23.5618 12.7526 19.6097 12.7526ZM23.8966 15.622C21.529 13.2545 17.6902 13.2545 15.3227 15.622C12.9552 17.9895 12.9552 21.8284 15.3227 24.1959C17.6902 26.5634 21.5291 26.5634 23.8966 24.1959C26.2641 21.8284 26.2641 17.9895 23.8966 15.622Z" fill="black"/>
</g>
<defs>
<clipPath id="clip0_2001_69">
<rect width="40" height="40" fill="white"/>
</clipPath>
</defs>
</svg>
