<svg width="40" height="40" viewBox="0 0 40 40" fill="none" xmlns="http://www.w3.org/2000/svg">
<path d="M19 8.5L31 5V21.5L19 18V8.5Z" fill="#B9E640"/>
<path d="M39.091 12.9091C39.091 11.0424 37.7152 9.49093 35.9274 9.21214V3.83033C35.9274 2.36972 34.7395 1.17578 33.2728 1.17578H33.0061C31.5455 1.17578 30.3516 2.36366 30.3516 3.83033V4.09093L18.7031 7.45457H14.3092C13.2304 7.45457 12.3274 8.20002 12.0728 9.20002C10.2425 9.44851 8.83039 11.0121 8.83039 12.9091C8.83039 14.7758 10.2061 16.3273 12.0001 16.6061V16.6606C12.0001 17.7879 12.8122 18.7273 13.8849 18.9334V19.9879H11.1152C10.3213 19.9879 9.57585 20.3818 9.1213 21.0364L6.86069 24.3091C6.68494 23.697 6.12736 23.2424 5.4607 23.2424H2.37585C1.56979 23.2424 0.90918 23.897 0.90918 24.7091V34.8121C0.90918 35.6182 1.56373 36.2788 2.37585 36.2788H5.45463C6.26069 36.2788 6.91524 35.6243 6.91524 34.8121V34.6364H7.64251C8.03039 34.6364 8.39403 34.8121 8.63645 35.1152L9.19403 35.8121C9.65463 36.394 10.3455 36.7212 11.091 36.7212H13.9698C14.2607 37.9273 15.3395 38.8303 16.6304 38.8303C17.9213 38.8303 19.0001 37.9273 19.291 36.7212H20.8365C21.4849 36.7212 22.091 36.4728 22.5395 36.0182C23.0061 35.5697 23.2607 34.9576 23.2607 34.297C23.2607 33.5515 22.9152 32.897 22.388 32.4546C22.4365 32.4121 22.491 32.3758 22.5395 32.3334C23.0061 31.8849 23.2607 31.2728 23.2607 30.6121C23.2607 29.8667 22.9152 29.2121 22.388 28.7697C22.4365 28.7273 22.491 28.6909 22.5395 28.6485C23.0001 28.2061 23.2607 27.5758 23.2607 26.9273C23.2607 26.1818 22.9152 25.5273 22.388 25.0849C22.4365 25.0424 22.4971 25.0061 22.5395 24.9576C23.0001 24.5031 23.2546 23.8909 23.2546 23.2364C23.2546 21.897 22.1698 20.8121 20.8304 20.8121H19.3637V19.194L30.388 22.3758C30.5698 23.6667 31.6668 24.6667 33.0061 24.6667H33.2728C34.7334 24.6667 35.9274 23.4788 35.9274 22.0121V16.6061C37.7152 16.3273 39.091 14.7758 39.091 12.9091ZM19.3637 8.46669L30.3516 5.29699V21.1334L19.3637 17.9637V8.46669ZM9.98797 12.9091C9.98797 11.6849 10.8486 10.6606 12.0001 10.394V15.4303C10.8486 15.1637 9.98797 14.1394 9.98797 12.9091ZM13.1516 16.6606V9.76972C13.1516 9.76366 13.1516 9.7576 13.1516 9.75154V9.74548C13.1698 9.12124 13.6789 8.61821 14.3031 8.61821H18.2001V17.8182H14.3031C13.6728 17.8182 13.1516 17.297 13.1516 16.6606ZM5.75766 34.8061C5.75766 34.9697 5.61827 35.1152 5.44857 35.1152H2.37585C2.20615 35.1152 2.06676 34.9758 2.06676 34.8061V24.7031C2.06676 24.5334 2.20615 24.394 2.37585 24.394H5.45463C5.61827 24.394 5.76373 24.5334 5.76373 24.7031V25.7758V34.0546V34.8061H5.75766ZM10.091 35.0788L9.53342 34.3818C9.07282 33.8061 8.38191 33.4728 7.63645 33.4728H6.90918V26.2182C6.9516 26.1818 6.98191 26.1455 7.01221 26.1031L10.0607 21.6909C10.2971 21.3455 10.691 21.1455 11.1031 21.1455H13.8728V28.0728V28.5091C13.8728 29.0667 13.4183 29.5212 12.8607 29.5212C12.3031 29.5212 11.8486 29.0667 11.8486 28.5091V25.6728C11.8486 25.3515 11.588 25.097 11.2728 25.097C10.9516 25.097 10.6971 25.3576 10.6971 25.6728V28.5091C10.6971 29.7031 11.6668 30.6788 12.8668 30.6788C13.2304 30.6788 13.5758 30.5758 13.8789 30.4182V35.5576H11.0789C10.6971 35.5576 10.3334 35.3818 10.091 35.0788ZM16.6243 37.6606C15.7516 37.6606 15.0365 36.9515 15.0365 36.0728V20.5697V18.9758H18.2062V21C17.9274 21.1212 17.6728 21.2849 17.4546 21.5031C17.0001 21.9576 16.7455 22.5697 16.7455 23.2182C16.7455 23.7455 16.9152 24.2243 17.194 24.6243C16.8425 24.7455 16.5152 24.9334 16.2546 25.194C15.8001 25.6485 15.5455 26.2606 15.5455 26.9091C15.5455 27.9758 16.2365 28.8728 17.194 29.194C16.9031 29.6 16.7395 30.0849 16.7395 30.6C16.7395 31.3455 17.0668 32.0121 17.588 32.4546C17.5395 32.497 17.491 32.5334 17.4425 32.5758C16.988 33.0303 16.7334 33.6425 16.7334 34.2909C16.7334 35.2728 17.3031 36.1152 18.1334 36.4849C17.9698 37.1637 17.3516 37.6606 16.6243 37.6606ZM22.0971 34.2909C22.0971 34.6364 21.9637 34.9515 21.7213 35.1879C21.4849 35.4243 21.1637 35.5576 20.8304 35.5576H19.1758C19.0789 35.5576 19.0001 35.5515 18.9031 35.5212C18.3152 35.4 17.9092 34.8909 17.9092 34.2909C17.9092 33.9515 18.0425 33.6303 18.2728 33.394C18.4546 33.2182 18.6668 33.1031 18.9455 33.0424C19.0001 33.0243 19.0789 33.0182 19.1758 33.0182H20.8304C21.5274 33.0243 22.0971 33.594 22.0971 34.2909ZM22.0971 30.6C22.0971 30.9455 21.9637 31.2606 21.7213 31.497C21.4849 31.7334 21.1637 31.8667 20.8304 31.8667H19.1758C19.0789 31.8667 19.0001 31.8606 18.9031 31.8303C18.3152 31.7091 17.9092 31.2 17.9092 30.6C17.9092 30.2606 18.0425 29.9394 18.2728 29.7031C18.4546 29.5273 18.6668 29.4121 18.9455 29.3515C19.0001 29.3334 19.0789 29.3273 19.1758 29.3273H20.8304C21.5274 29.3334 22.0971 29.9031 22.0971 30.6ZM22.0971 26.9091C22.0971 27.2485 21.9637 27.5758 21.7213 27.8061C21.4849 28.0424 21.1637 28.1758 20.8304 28.1758H19.1758H17.9758C17.2789 28.1758 16.7092 27.6061 16.7092 26.9091C16.7092 26.5697 16.8425 26.2485 17.0789 26.0061C17.3092 25.7758 17.6304 25.6425 17.9758 25.6425H19.1758H20.8304C21.5274 25.6425 22.0971 26.2121 22.0971 26.9091ZM22.0971 23.2182C22.0971 23.5576 21.9637 23.8788 21.7213 24.1152C21.4849 24.3515 21.1637 24.4849 20.8304 24.4849H19.1758C19.0789 24.4849 19.0001 24.4788 18.9031 24.4485C18.3152 24.3273 17.9092 23.8182 17.9092 23.2182C17.9092 22.8788 18.0425 22.5576 18.2789 22.3212C18.4486 22.1515 18.6668 22.0303 18.9213 21.9758C18.988 21.9576 19.0789 21.9515 19.1758 21.9515H20.8304C21.5274 21.9515 22.0971 22.5212 22.0971 23.2182ZM34.7698 21.9879C34.7698 22.8121 34.0971 23.4849 33.2728 23.4849H33.0061C32.1819 23.4849 31.5092 22.8121 31.5092 21.9879V21.9031V4.5273V3.83033C31.5092 3.00608 32.1819 2.33336 33.0061 2.33336H33.2728C34.0971 2.33336 34.7698 3.00608 34.7698 3.83033V21.9879ZM35.9274 15.4243V10.3879C37.0728 10.6546 37.9395 11.6788 37.9395 12.9031C37.9395 14.1273 37.0728 15.1637 35.9274 15.4243Z" fill="black"/>
</svg>
