<svg width="40" height="40" viewBox="0 0 40 40" fill="none" xmlns="http://www.w3.org/2000/svg">
<path d="M25 5L29.0769 7.30769L31 10.5H26L25 5Z" fill="#B9E640"/>
<path d="M33.0364 10.5053L25.7447 3.21362C25.608 3.0769 25.4228 3 25.2291 3H9.91662C8.30881 3 7 4.30806 7 5.91669V35.0834C7 36.6919 8.30881 38 9.91669 38H30.3334C31.9412 38 33.25 36.6919 33.25 35.0833V11.0208C33.25 10.8271 33.1731 10.642 33.0364 10.5053ZM25.9583 5.48944L30.7606 10.2917H27.4166C26.612 10.2917 25.9583 9.63729 25.9583 8.83338V5.48944ZM31.7917 35.0833C31.7917 35.8872 31.138 36.5416 30.3334 36.5416H9.91669C9.11203 36.5416 8.45838 35.8872 8.45838 35.0833V5.91669C8.45838 5.11278 9.1121 4.45838 9.91669 4.45838H24.5V8.83338C24.5 10.4419 25.8088 11.75 27.4167 11.75H31.7917V35.0833Z" fill="black"/>
<path d="M28.1458 23.4166H12.1042C11.7011 23.4166 11.375 23.7428 11.375 24.1458C11.375 24.5489 11.7011 24.875 12.1042 24.875H28.1459C28.5489 24.875 28.8751 24.5489 28.8751 24.1458C28.875 23.7428 28.5489 23.4166 28.1458 23.4166Z" fill="black"/>
<path d="M28.1458 19.0416H12.1042C11.7011 19.0416 11.375 19.3678 11.375 19.7708C11.375 20.1739 11.7011 20.5 12.1042 20.5H28.1459C28.5489 20.5 28.8751 20.1739 28.8751 19.7708C28.875 19.3678 28.5489 19.0416 28.1458 19.0416Z" fill="black"/>
<path d="M28.1458 27.7916H12.1042C11.7011 27.7916 11.375 28.1178 11.375 28.5208C11.375 28.9239 11.7011 29.25 12.1042 29.25H28.1459C28.5489 29.25 28.8751 28.9239 28.8751 28.5208C28.875 28.1178 28.5489 27.7916 28.1458 27.7916Z" fill="black"/>
<path d="M20.8542 32.1666H12.1042C11.7011 32.1666 11.375 32.4928 11.375 32.8958C11.375 33.2989 11.7011 33.625 12.1042 33.625H20.8542C21.2572 33.625 21.5834 33.2989 21.5834 32.8958C21.5833 32.4928 21.2572 32.1666 20.8542 32.1666Z" fill="black"/>
<path d="M18.6667 15.3958C18.6667 15.7989 18.9929 16.125 19.3959 16.125H28.1459C28.549 16.125 28.8751 15.7989 28.8751 15.3958C28.8751 14.9928 28.549 14.6666 28.1459 14.6666H19.3959C18.9929 14.6667 18.6667 14.9928 18.6667 15.3958Z" fill="black"/>
<path d="M13.5625 14.6668H12.1042C11.7011 14.6668 11.375 14.9929 11.375 15.396C11.375 15.799 11.7011 16.1251 12.1042 16.1251H12.8334C12.8334 16.5282 13.1595 16.8543 13.5626 16.8543C13.9656 16.8543 14.2918 16.5282 14.2918 16.1251V15.9908C15.1386 15.6887 15.75 14.8869 15.75 13.9376C15.75 12.7313 14.7688 11.7501 13.5625 11.7501C13.1609 11.7501 12.8333 11.4232 12.8333 11.0209C12.8333 10.6186 13.1609 10.2917 13.5625 10.2917H15.0208C15.4239 10.2917 15.75 9.96555 15.75 9.5625C15.75 9.15946 15.4239 8.83332 15.0208 8.83332H14.2916C14.2916 8.43027 13.9655 8.10413 13.5624 8.10413C13.1594 8.10413 12.8332 8.43027 12.8332 8.83332V8.96764C11.9864 9.26972 11.375 10.0715 11.375 11.0209C11.375 12.2272 12.3562 13.2084 13.5625 13.2084C13.9641 13.2084 14.2917 13.5352 14.2917 13.9376C14.2917 14.3399 13.9641 14.6668 13.5625 14.6668Z" fill="black"/>
</svg>
