<svg width="40" height="40" viewBox="0 0 40 40" fill="none" xmlns="http://www.w3.org/2000/svg">
<g clip-path="url(#clip0_2001_37)">
<path d="M8.75 13.75H12.5V21.25L8.75 24.375V13.75Z" fill="#B9E640"/>
<path d="M15 10H18.75V20.625H15V10Z" fill="#B9E640"/>
<path d="M21.25 13.75H25.625V21.25H21.25V13.75Z" fill="#B9E640"/>
<path d="M28.125 8.75H32.5V21.25L28.125 23.75V8.75Z" fill="#B9E640"/>
<path d="M37.4018 19.5474C36.1426 18.2616 34.073 18.2391 32.7884 19.497L32.6372 19.6449V8.60033C32.6372 8.29823 32.3923 8.05338 32.0902 8.05338H28.1262C27.8241 8.05338 27.5792 8.2983 27.5792 8.60033V21.8642C27.1866 21.5067 26.6983 21.2529 26.1574 21.1466V13.3816C26.1574 13.0795 25.9125 12.8346 25.6105 12.8346H21.6486C21.3465 12.8346 21.1016 13.0796 21.1016 13.3816V21.0905H20.0751C19.9436 20.9923 19.8118 20.9006 19.6798 20.8129V10.5513C19.6798 10.2492 19.4349 10.0044 19.1329 10.0044H15.1688C14.8667 10.0044 14.6219 10.2493 14.6219 10.5513V19.9748C14.1492 20.1248 13.6752 20.3381 13.2001 20.6136V13.9463C13.2001 13.6442 12.9552 13.3993 12.6532 13.3993H8.69132C8.38921 13.3993 8.14437 13.6442 8.14437 13.9463V24.29L7.22679 23.3723C7.12421 23.2697 6.98507 23.2121 6.83999 23.2121C6.69491 23.2121 6.55577 23.2697 6.45319 23.3723L1.8289 27.9964C1.6153 28.2099 1.6153 28.5563 1.8289 28.7699L12.8995 39.8405C13.0021 39.9431 13.1412 40.0007 13.2864 40.0007C13.4315 40.0007 13.5706 39.9431 13.6732 39.8404L18.295 35.2164C18.5085 35.0028 18.5084 34.6565 18.2949 34.4429L16.7875 32.9352L17.8533 31.8708L27.7519 31.8643C28.8969 31.8643 29.8929 31.4579 30.7121 30.6565L37.3516 24.1631C38.638 22.9035 38.6605 20.8328 37.4018 19.5474ZM31.5432 9.14737V20.715L28.6731 23.5225V9.14737H31.5432ZM22.1955 13.9286H25.0634V21.0905H22.1955V13.9286ZM15.7156 11.0984H18.5857V20.206C17.6384 19.786 16.6806 19.6315 15.7156 19.7402V11.0984ZM12.1059 14.4933V21.3573C12.0819 21.376 12.058 21.3937 12.034 21.4127C12.0242 21.4204 12.0147 21.4285 12.0055 21.437L9.23812 23.9592V14.4933H12.1059ZM13.2862 38.6801L2.98921 28.3831L6.8396 24.5327L8.06483 25.7581C8.06655 25.7601 8.06796 25.7622 8.06976 25.7641C8.08358 25.7793 8.09819 25.7933 8.11327 25.8066L17.1346 34.8297L13.2862 38.6801ZM36.5865 23.3813L29.9471 29.8745C29.3309 30.4774 28.6129 30.7704 27.7516 30.7704L17.6266 30.7771C17.4817 30.7771 17.3429 30.8346 17.2404 30.937L16.0141 32.1616L9.26694 25.4131L12.7283 22.2582C15.0893 20.3924 17.322 20.3306 19.5541 22.0689C19.6501 22.1438 19.7684 22.1844 19.8901 22.1844H25.5837C26.6168 22.1844 27.4573 23.0249 27.4573 24.0579C27.4573 24.0949 27.4558 24.1315 27.4537 24.168C27.453 24.1807 27.4519 24.1933 27.4508 24.206C27.449 24.2299 27.4467 24.2537 27.444 24.2774C27.4423 24.2917 27.4405 24.3059 27.4385 24.32C27.4351 24.3443 27.4311 24.3685 27.4267 24.3926C27.4247 24.4039 27.4229 24.4154 27.4206 24.4267C27.4134 24.4626 27.4053 24.4983 27.3959 24.5337C27.3955 24.5356 27.3948 24.5374 27.3943 24.5394C27.3844 24.5761 27.3736 24.6125 27.3614 24.6486C27.3612 24.6493 27.3609 24.6501 27.3607 24.6508C27.3224 24.764 27.2729 24.8742 27.2122 24.9809C27.2077 24.9887 27.2041 24.9967 27.2 25.0047C26.8743 25.5599 26.2719 25.9338 25.5836 25.9338H17.6269C17.3248 25.9338 17.0799 26.1787 17.0799 26.4807C17.0799 26.7828 17.3248 27.0277 17.6269 27.0277H25.5838C26.6613 27.0277 27.6063 26.4499 28.1262 25.5878L32.4569 21.3516C32.4678 21.3417 32.4783 21.3314 32.4884 21.3207L33.5536 20.2788C34.4074 19.4428 35.783 19.458 36.6201 20.3128C37.4568 21.1672 37.4416 22.5439 36.5865 23.3813ZM9.17577 10.9968C8.96522 10.7802 8.97015 10.4338 9.18679 10.2233L14.9291 4.6426C15.0772 4.49877 15.2936 4.45041 15.4887 4.51776L23.0482 7.12362L30.3019 1.09299H28.363C28.0609 1.09299 27.8161 0.848069 27.8161 0.546038C27.8161 0.244006 28.061 -0.000915527 28.363 -0.000915527H31.696C31.9981 -0.000915527 32.243 0.244006 32.243 0.546038V3.88112C32.243 4.18323 31.998 4.42807 31.696 4.42807C31.394 4.42807 31.1491 4.18315 31.1491 3.88112V1.81135L23.5108 8.16166C23.3638 8.28393 23.1637 8.32049 22.9828 8.25815L15.4503 5.66158L9.94929 11.0078C9.84296 11.111 9.70546 11.1624 9.56812 11.1624C9.42546 11.1626 9.28296 11.1072 9.17577 10.9968Z" fill="#2D2D2D"/>
</g>
<defs>
<clipPath id="clip0_2001_37">
<rect width="40" height="40" fill="white"/>
</clipPath>
</defs>
</svg>
