<svg width="40" height="40" viewBox="0 0 40 40" fill="none" xmlns="http://www.w3.org/2000/svg">
<path d="M24.5 25.5479L26.5 24.5L27.7617 26.4766V28.2314L29.5 28.5V30L28.5 31L29 33.5L28.5 34.5L26.5 35L25.5 37L23.4287 36.6904L21.8809 37H20L19 35L16.5 34L17.5479 32.3574L16 30.5V29L17.5479 28.333L17.71 25.8574L18.7861 25.2383L20.6426 25.5479L21.5 23.5H23.5L24.5 25.5479ZM22.5 27.4043C20.7905 27.4043 19.4043 28.7905 19.4043 30.5C19.4043 32.2094 20.7906 33.5947 22.5 33.5947C24.2093 33.5946 25.5947 32.2093 25.5947 30.5C25.5947 28.7906 24.2093 27.4045 22.5 27.4043Z" fill="#B9E640"/>
<path d="M32.1969 8.18021L20.2852 1.89263C20.1064 1.79849 19.8942 1.79849 19.7154 1.89263L7.80301 8.18021C7.60551 8.28489 7.47754 8.51606 7.47754 8.7202V25.2923C7.47754 25.5188 7.6027 25.7262 7.80301 25.8323L15.0036 29.6329L14.9476 29.9449C14.8594 30.4676 15.1771 30.9713 15.6855 31.1161L16.1278 31.2436C16.1772 31.68 16.2708 32.1109 16.4073 32.5317L16.126 32.7397C15.6962 33.0503 15.5735 33.6308 15.8393 34.0892L16.4239 35.0953C16.6785 35.559 17.2423 35.7491 17.7483 35.5351L18.2007 35.3301C18.5107 35.6174 18.8511 35.8749 19.2175 36.1002L19.118 36.5055C18.9982 37.0145 19.2789 37.5343 19.7725 37.7136C20.8543 38.0875 20.9346 38.1779 21.2328 38.1779C21.6154 38.1779 21.982 37.9622 22.1668 37.5933L22.4213 37.0622C22.8099 37.0776 23.2045 37.0526 23.6068 36.9924L23.8482 37.4746C24.0831 37.9436 24.6326 38.1612 25.1273 37.9818L26.2264 37.5807C26.7354 37.4013 27.0173 36.8725 26.8826 36.3547L26.7032 35.6478C26.9852 35.4249 27.2504 35.1758 27.4966 34.9027L28.0843 35.159C28.5646 35.3706 29.1357 35.1775 29.3896 34.7287L29.9767 33.7119C30.2526 33.2524 30.1209 32.6528 29.69 32.3554L29.0403 31.8827C29.1124 31.5465 29.1577 31.2038 29.1756 30.8587L29.8384 30.6638C30.3426 30.516 30.6561 30.0129 30.5668 29.4884L30.36 28.3309C30.267 27.8016 29.808 27.4232 29.2698 27.4797L29.0463 27.4954L32.1969 25.8323C32.3972 25.7262 32.5224 25.5188 32.5224 25.2923V8.72028C32.5223 8.51942 32.3971 8.2863 32.1969 8.18021ZM20.0003 3.12286L30.6043 8.7202L25.7176 11.2997L15.7201 5.38208L20.0003 3.12286ZM14.4533 6.05067L24.4507 11.9684L20.0003 14.3175L9.39566 8.7202L14.4533 6.05067ZM15.2999 28.4089L8.69824 24.9246V9.73278L19.3899 15.3761V24.2993C19.0064 23.9625 18.4474 23.9479 18.044 24.2768L17.1422 25.0332C16.7328 25.3664 16.6487 25.9708 16.9485 26.4047L17.2304 26.8213C16.9872 27.1747 16.7798 27.5538 16.6106 27.9532L16.2321 27.9311C15.8401 27.9074 15.4925 28.1011 15.2999 28.4089ZM29.336 29.5391L28.3961 29.8163C28.1011 29.9027 27.915 30.2144 27.9639 30.5179C27.9639 31.0102 27.896 31.4977 27.7613 31.9668C27.691 32.2136 27.7822 32.4783 27.9896 32.6284L28.8377 33.2447L28.4169 33.9725L27.567 33.6018C27.3131 33.4921 27.0139 33.566 26.8422 33.7854C26.4995 34.224 26.1037 34.5978 25.6663 34.897C25.4547 35.0412 25.3564 35.3029 25.4195 35.5508L25.6579 36.4896L24.8646 36.7786L24.4939 36.0366C24.3693 35.7875 24.0921 35.6546 23.8179 35.7136C23.2279 35.8423 22.6634 35.8715 22.1079 35.8185C21.8493 35.7881 21.6103 35.9318 21.5 36.1618L21.1406 36.911L20.3461 36.6231L20.5129 35.9418C20.5796 35.6689 20.451 35.3851 20.2012 35.2552C19.6594 34.9739 19.1802 34.6127 18.7779 34.1836C18.599 33.9929 18.3183 33.9386 18.0811 34.0447L17.4034 34.3516L16.9814 33.625L17.4987 33.243C17.7229 33.0773 17.8068 32.7811 17.702 32.523C17.4707 31.9515 17.3396 31.3542 17.3128 30.7468C17.3008 30.4852 17.1239 30.2605 16.8723 30.1878L16.1803 29.9887L16.3287 29.1597L16.9843 29.1984C17.2668 29.2151 17.5089 29.0465 17.5982 28.7872C17.7955 28.2108 18.084 27.6827 18.4554 27.219C18.6222 27.0097 18.6336 26.7165 18.4839 26.4954L18.0548 25.8612L18.6991 25.3206L19.2296 25.8266C19.4281 26.0143 19.7261 26.0501 19.9609 25.9107C20.4556 25.6192 20.9956 25.4136 21.5654 25.2997C21.8282 25.2473 22.0261 25.0291 22.053 24.7621L22.1394 23.902H22.981L23.0728 24.7376C23.1025 25.007 23.3058 25.2246 23.5729 25.2717C24.1182 25.3689 24.6392 25.5476 25.1214 25.8022C25.355 25.9255 25.6423 25.885 25.8318 25.7008L26.5435 25.01L27.1878 25.55L26.6609 26.3487C26.5119 26.5752 26.5298 26.8733 26.705 27.08C27.0471 27.4824 27.3249 27.9312 27.5305 28.414C27.633 28.6529 27.8774 28.8079 28.1349 28.7829L29.1875 28.709L29.336 29.5391ZM27.95 26.6936C27.9405 26.6804 27.9324 26.6663 27.9227 26.6531L28.2946 26.0898C28.5861 25.6529 28.5039 25.0658 28.0997 24.7213L27.1991 23.9667C26.7962 23.6234 26.1996 23.6454 25.8115 24.0186L25.2882 24.527C24.9503 24.3774 24.5993 24.257 24.238 24.1664L24.1754 23.5996C24.1158 23.0763 23.6742 22.6811 23.1485 22.6811H21.9642C21.4361 22.6811 20.9867 23.0918 20.942 23.6085L20.8818 24.2075C20.7897 24.2327 20.7011 24.2668 20.6106 24.296V15.3761L25.0904 13.0114V17.0063C25.0904 17.3436 25.3633 17.6166 25.7007 17.6166C26.038 17.6166 26.311 17.3436 26.311 17.0063V12.3671L31.3016 9.73278V24.9247L27.95 26.6936Z" fill="black"/>
<path d="M22.7575 26.8802C20.799 26.8802 19.2057 28.4735 19.2057 30.432C19.2057 32.3906 20.799 33.9844 22.7575 33.9844C24.7161 33.9844 26.3099 32.3906 26.3099 30.432C26.3099 28.4735 24.7161 26.8802 22.7575 26.8802ZM22.7575 32.7637C21.4719 32.7637 20.4265 31.7177 20.4265 30.432C20.4265 29.1463 21.4719 28.1009 22.7575 28.1009C24.0432 28.1009 25.0893 29.1463 25.0893 30.432C25.0893 31.7176 24.0432 32.7637 22.7575 32.7637Z" fill="black"/>
</svg>
