<svg width="40" height="40" viewBox="0 0 40 40" fill="none" xmlns="http://www.w3.org/2000/svg">
<path d="M9.5 25L15.5 29V35.5L9.5 39L3.5 35.5V28.5L9.5 25Z" fill="#B9E640"/>
<path d="M34.5 13L37 15L35 17.5L32.5 15.5L34.5 13Z" fill="#B9E640"/>
<path d="M18.7074 3.54492C18.7074 4.17383 18.1948 4.68547 17.5647 4.68547C16.9358 4.68547 16.4242 4.17375 16.4242 3.54492C16.4242 2.91484 16.9359 2.40227 17.5647 2.40227C18.1948 2.40227 18.7074 2.91484 18.7074 3.54492ZM7.11307 15.415V11.6452C7.11307 11.3016 7.39158 11.023 7.73518 11.023H11.5029C11.8465 11.023 12.125 11.3016 12.125 11.6452V15.415C12.125 15.7586 11.8465 16.0371 11.5029 16.0371H7.73518C7.39158 16.0371 7.11307 15.7585 7.11307 15.415ZM8.35729 14.7929H10.8808V12.2672H8.35729V14.7929ZM14.3353 16.0371H20.2074C20.551 16.0371 20.8296 15.7586 20.8296 15.415C20.8296 15.0714 20.551 14.7929 20.2074 14.7929H14.3353C13.9917 14.7929 13.7131 15.0714 13.7131 15.415C13.7131 15.7585 13.9917 16.0371 14.3353 16.0371ZM14.3353 12.2672H26.0796C26.4232 12.2672 26.7017 11.9887 26.7017 11.6451C26.7017 11.3015 26.4232 11.023 26.0796 11.023H14.3353C13.9917 11.023 13.7131 11.3015 13.7131 11.6451C13.7131 11.9887 13.9917 12.2672 14.3353 12.2672ZM7.11307 18.9334C7.11307 18.5898 7.39158 18.3113 7.73518 18.3113H11.5029C11.8465 18.3113 12.125 18.5898 12.125 18.9334V22.7034C12.125 23.047 11.8465 23.3255 11.5029 23.3255H7.73518C7.39158 23.3255 7.11307 23.047 7.11307 22.7034V18.9334ZM8.35729 22.0813H10.8808V19.5555H8.35729V22.0813ZM14.3353 23.3255H20.2074C20.551 23.3255 20.8296 23.047 20.8296 22.7034C20.8296 22.3598 20.551 22.0813 20.2074 22.0813H14.3353C13.9917 22.0813 13.7131 22.3598 13.7131 22.7034C13.7131 23.047 13.9917 23.3255 14.3353 23.3255ZM14.3353 19.5555H26.0796C26.4232 19.5555 26.7017 19.277 26.7017 18.9334C26.7017 18.5898 26.4232 18.3113 26.0796 18.3113H14.3353C13.9917 18.3113 13.7131 18.5898 13.7131 18.9334C13.7131 19.277 13.9917 19.5555 14.3353 19.5555ZM36.8315 16.8433L30.8621 24.2076V33.2719C30.8621 34.8774 29.5557 36.1838 27.9502 36.1838H18.0192C17.6756 36.1838 17.3971 35.9052 17.3971 35.5616C17.3971 35.218 17.6756 34.9395 18.0192 34.9395H27.9502C28.8697 34.9395 29.6178 34.1914 29.6178 33.2719V25.7425L25.4268 30.9128C25.3585 30.9972 25.2692 31.0621 25.168 31.1012L21.4046 32.5571C21.3319 32.5852 21.2558 32.5991 21.1803 32.5991C21.0398 32.5991 20.9011 32.5515 20.7885 32.4603C20.6153 32.3199 20.5305 32.0977 20.566 31.8777L21.2102 27.8938C21.2275 27.7866 21.2727 27.6859 21.341 27.6015L29.6178 17.3889V8.0318C29.6178 7.11227 28.8696 6.36414 27.9501 6.36414H24.4824V7.0325C24.4824 7.87664 23.7947 8.56344 22.9493 8.56344H12.1801C11.336 8.56344 10.6492 7.87664 10.6492 7.0325V6.36414H7.17924C6.26088 6.36414 5.51385 7.11227 5.51385 8.0318V24.3446C5.51385 24.6882 5.23533 24.9667 4.89174 24.9667C4.54814 24.9667 4.26963 24.6882 4.26963 24.3446V8.0318C4.26963 6.42625 5.57486 5.11992 7.17924 5.11992H10.6492V4.45375C10.6492 3.60961 11.336 2.92281 12.1801 2.92281H14.0767C14.3713 1.26367 15.8232 0 17.5647 0C19.3073 0 20.7602 1.26367 21.055 2.92281H22.9494C23.7948 2.92281 24.4825 3.60961 24.4825 4.45375V5.11992H27.9502C29.5557 5.11992 30.8621 6.42625 30.8621 8.0318V15.8537L32.7435 13.5321C33.1857 12.9877 33.8146 12.6477 34.5143 12.5741C35.2152 12.5008 35.9007 12.7034 36.4448 13.1454C36.9882 13.5854 37.3282 14.2137 37.4014 14.9141C37.4745 15.6141 37.2721 16.2992 36.8315 16.8433ZM23.2384 4.45375C23.2384 4.29836 23.106 4.16703 22.9495 4.16703H20.4877C20.1441 4.16703 19.8656 3.88852 19.8656 3.54492C19.8656 2.27633 18.8335 1.24422 17.5648 1.24422C16.2974 1.24422 15.2663 2.27633 15.2663 3.54492C15.2663 3.88852 14.9878 4.16703 14.6442 4.16703H12.1802C12.0221 4.16703 11.8935 4.29562 11.8935 4.45375V7.0325C11.8935 7.19062 12.0221 7.31922 12.1802 7.31922H22.9494C23.106 7.31922 23.2383 7.18789 23.2383 7.0325V4.45375H23.2384ZM34.2158 18.0945L32.0614 16.3496L30.727 17.9963C30.7229 18.0014 30.7188 18.0066 30.7146 18.0116L22.412 28.2561L21.9674 31.0055L24.5646 30.0007L34.2158 18.0945ZM36.164 15.0434C36.1254 14.6739 35.9468 14.343 35.6611 14.1116C35.3748 13.879 35.0138 13.7728 34.6442 13.8115C34.2743 13.8503 33.9424 14.0295 33.7096 14.316L32.8449 15.383L34.9993 17.128L35.8649 16.0602C36.0963 15.7742 36.2027 15.4131 36.164 15.0434ZM16.4375 28.4564V35.7381C16.4375 35.9603 16.3189 36.1658 16.1265 36.2769L9.82205 39.9166C9.7258 39.9722 9.61838 40 9.51104 40C9.40369 40 9.29627 39.9722 9.20002 39.9166L2.89549 36.2769C2.70307 36.1658 2.58447 35.9603 2.58447 35.7381V28.4564C2.58447 28.2342 2.70307 28.0288 2.89549 27.9177L9.20002 24.2778C9.39244 24.1667 9.62955 24.1667 9.82213 24.2778L16.1266 27.9177C16.3189 28.0288 16.4375 28.2342 16.4375 28.4564ZM4.45041 28.4565L9.51096 31.38L14.5725 28.4572L9.51088 25.5349L4.45041 28.4565ZM3.82846 35.379L8.88877 38.3004V32.4574L3.82846 29.5341V35.379ZM15.1933 35.379V29.5355L10.133 32.4575V38.3004L15.1933 35.379Z" fill="black"/>
</svg>
