<svg width="40" height="40" viewBox="0 0 40 40" fill="none" xmlns="http://www.w3.org/2000/svg">
<path d="M35.0769 9.5L37 10.5L33 17.5L31 16L35.0769 9.5Z" fill="#B9E640"/>
<path d="M2 11.0001L5.5 7.00012L8.58428 4.00012L9 10.0001L7 11.0001L2 11.0001Z" fill="#B9E640"/>
<path d="M38.0016 10.382L38.0281 10.3382C38.5711 9.44761 38.2883 8.28042 37.3977 7.73667C36.9672 7.47417 36.4594 7.39526 35.9672 7.5148C35.475 7.63433 35.0594 7.93667 34.7969 8.36714L27.5727 20.2226V6.10776C27.5727 4.32339 26.1219 2.87183 24.3391 2.87183H8.95703V2.87339C8.82891 2.87339 8.70391 2.92495 8.61328 3.02261L1.29688 10.9195C1.21484 11.0078 1.17266 11.1218 1.17266 11.2382H1.17188V33.8921C1.17188 35.6765 2.62266 37.1281 4.40547 37.1281H24.3375C26.1203 37.1281 27.5711 35.6765 27.5711 33.8921V27.4968L37.4984 11.2054C37.9414 11.7101 38.0273 12.4648 37.6602 13.0679L35.4656 16.6695C35.3312 16.8906 35.4008 17.1789 35.6219 17.314C35.6984 17.3601 35.782 17.3828 35.8656 17.3828C36.0234 17.3828 36.1781 17.3031 36.2664 17.1578L38.4609 13.5562C39.1 12.5085 38.8789 11.175 38.0016 10.382ZM23.6648 28.8624L24.9187 29.6273L23.3203 30.839L23.6648 28.8624ZM23.9633 27.946L30.8773 16.6L32.5078 17.5945L25.5938 28.9406L23.9633 27.946ZM31.3656 15.7992L35.1062 9.66089L36.7367 10.6554L32.9961 16.7937L31.3656 15.7992ZM36.1875 8.42573C36.4367 8.36558 36.6922 8.40464 36.9086 8.53667C37.3586 8.81089 37.5008 9.39995 37.2273 9.84995L37.2242 9.85542L35.5938 8.86089L35.5969 8.85542C35.7289 8.63823 35.9383 8.48589 36.1875 8.42573ZM8.48828 4.53667V8.75933C8.48828 9.86792 7.5875 10.7695 6.47969 10.7695H2.71406L8.48828 4.53667ZM26.6344 33.8921C26.6344 35.1593 25.6039 36.1906 24.3383 36.1906H4.40547C3.13906 36.1906 2.10938 35.1593 2.10938 33.8921V11.707H6.47969C8.10391 11.707 9.42578 10.3851 9.42578 8.75933V3.81011H24.3383C25.6047 3.81011 26.6344 4.84136 26.6344 6.10855V21.7617L22.9187 27.8585C22.8805 27.9218 22.8594 27.9906 22.8523 28.0593L22.1922 31.8515C22.1594 32.0414 22.2453 32.232 22.4102 32.332C22.4852 32.3781 22.5695 32.4007 22.6539 32.4007C22.7539 32.4007 22.8539 32.3687 22.9367 32.3054L26.0328 29.9593L26.032 29.9585C26.0781 29.9234 26.1187 29.8804 26.15 29.8296L26.6336 29.0359V33.8921H26.6344ZM12.5461 12.5679H13.5773V17.7765C13.5773 18.0351 13.7875 18.2453 14.0461 18.2453H17.043C17.3016 18.2453 17.5117 18.0351 17.5117 17.7765V14.0031H19.5359V17.7765C19.5359 18.0351 19.7461 18.2453 20.0047 18.2453H23.0016C23.2602 18.2453 23.4703 18.0351 23.4703 17.7765V12.5679H24.5016C24.6891 12.5679 24.8594 12.4554 24.9328 12.2828C25.0063 12.1101 24.9695 11.9101 24.8398 11.7742L22.907 9.76167V7.17808C22.907 6.91948 22.6969 6.70933 22.4383 6.70933H20.7648C20.5469 6.70933 20.3641 6.85776 20.3109 7.05933L18.8617 5.55073C18.7734 5.45855 18.6516 5.40698 18.5234 5.40698C18.3953 5.40698 18.2734 5.45933 18.1852 5.55073L12.207 11.7742C12.0766 11.9093 12.0398 12.1101 12.1141 12.2828C12.1883 12.4554 12.3586 12.5679 12.5461 12.5679ZM18.5242 6.5523L20.4266 8.53276C20.5594 8.67026 20.7625 8.71401 20.9398 8.64292C21.1172 8.57104 21.2336 8.39917 21.2336 8.20776V7.64605H21.9695V9.94995C21.9695 10.071 22.0164 10.1875 22.1 10.275L23.4016 11.6296H23.0016C22.743 11.6296 22.5328 11.8398 22.5328 12.0984V17.307H20.4734V13.5335C20.4734 13.275 20.2633 13.0648 20.0047 13.0648H17.043C16.7844 13.0648 16.5742 13.275 16.5742 13.5335V17.307H14.5148V12.0984C14.5148 11.8398 14.3047 11.6296 14.0461 11.6296H13.6461L18.5242 6.5523ZM5.24453 20.864C5.24453 20.6054 5.45469 20.3953 5.71328 20.3953H14.8156C15.0742 20.3953 15.2844 20.6054 15.2844 20.864C15.2844 21.1226 15.0742 21.3328 14.8156 21.3328H5.71328C5.45469 21.3328 5.24453 21.1234 5.24453 20.864ZM5.24453 24.5539C5.24453 24.2953 5.45469 24.0851 5.71328 24.0851H23.0016C23.2602 24.0851 23.4703 24.2953 23.4703 24.5539C23.4703 24.8125 23.2602 25.0226 23.0016 25.0226H5.71328C5.45469 25.0226 5.24453 24.8125 5.24453 24.5539ZM22.032 28.2429C22.032 28.5015 21.8219 28.7117 21.5633 28.7117H5.71328C5.45469 28.7117 5.24453 28.5015 5.24453 28.2429C5.24453 27.9843 5.45469 27.7742 5.71328 27.7742H21.5633C21.8219 27.7742 22.032 27.9835 22.032 28.2429ZM20.8937 31.932C20.8937 32.1906 20.6836 32.4007 20.425 32.4007H5.71328C5.45469 32.4007 5.24453 32.1906 5.24453 31.932C5.24453 31.6734 5.45469 31.4632 5.71328 31.4632H20.4258C20.6844 31.4632 20.8937 31.6726 20.8937 31.932Z" fill="black"/>
</svg>
