<svg width="40" height="40" viewBox="0 0 40 40" fill="none" xmlns="http://www.w3.org/2000/svg">
<g clip-path="url(#clip0_2001_109)">
<path d="M23.75 10.625L27.5 9.375L30.625 11.875L30 16.25L33.125 18.125V21.875L30 23.75L30.625 27.5L28.125 30.625L24.375 30L21.875 32.5L18.75 33.125L15.625 30L11.875 30.625L9.375 27.5L10 23.75L6.875 21.875L7.5 18.125L10 15.625V11.875L12.5 9.375L16.25 10L18.125 6.875H21.875L23.75 10.625ZM20 13.75C16.5482 13.75 13.75 16.5482 13.75 20C13.75 23.4518 16.5482 26.25 20 26.25C23.4518 26.25 26.25 23.4518 26.25 20C26.25 16.5482 23.4518 13.75 20 13.75Z" fill="#B9E640"/>
<path d="M32.5281 23.0211C32.8281 23.0231 33.1186 22.9158 33.3454 22.7193C33.5721 22.5228 33.7195 22.2504 33.7601 21.9531C33.9414 20.6595 33.9414 19.3468 33.7601 18.0531C33.7202 17.7553 33.5731 17.4822 33.3463 17.285C33.1195 17.0879 32.8286 16.9801 32.5281 16.982H31.164C30.9053 16.0254 30.5237 15.1063 30.0289 14.2477L30.9937 13.2813C31.2075 13.07 31.3371 12.7881 31.3581 12.4883C31.3791 12.1885 31.2901 11.8913 31.1078 11.6524C30.3219 10.6087 29.3936 9.68039 28.35 8.89454C28.1112 8.71113 27.8136 8.62127 27.5132 8.64184C27.2128 8.66242 26.9303 8.79201 26.7187 9.00626L25.7539 9.9711C24.8954 9.47618 23.9762 9.09486 23.0195 8.83673V7.47188C23.0216 7.17208 22.9145 6.88176 22.7183 6.65508C22.5221 6.42839 22.2501 6.28081 21.9531 6.23985C20.6594 6.05938 19.3468 6.05938 18.0531 6.23985C17.7552 6.27976 17.4822 6.42689 17.285 6.65369C17.0878 6.88048 16.9801 7.17137 16.982 7.47188V8.83673C16.0253 9.095 15.1062 9.47631 14.2476 9.9711L13.2812 9.00626C13.07 8.79244 12.7881 8.66291 12.4883 8.64192C12.1885 8.62093 11.8913 8.7099 11.6523 8.8922C10.6087 9.67804 9.68035 10.6064 8.89451 11.65C8.7111 11.8888 8.62123 12.1864 8.64181 12.4868C8.66238 12.7872 8.79197 13.0697 9.00622 13.2813L9.97107 14.2461C9.47622 15.1047 9.09466 16.0238 8.83591 16.9805H7.47185C7.17204 16.9784 6.88173 17.0855 6.65504 17.2817C6.42835 17.4779 6.28077 17.7499 6.23982 18.0469C6.05856 19.3406 6.05856 20.6532 6.23982 21.9469C6.27973 22.2447 6.42686 22.5178 6.65365 22.715C6.88044 22.9122 7.17134 23.0199 7.47185 23.018H8.83591C9.09466 23.9746 9.47622 24.8937 9.97107 25.7524L9.00622 26.7188C8.79241 26.93 8.66288 27.2119 8.64188 27.5117C8.62089 27.8115 8.70987 28.1087 8.89216 28.3477C9.67801 29.3913 10.6063 30.3196 11.65 31.1055C11.8888 31.2887 12.1864 31.3785 12.4867 31.3579C12.7871 31.3373 13.0696 31.2079 13.2812 30.9938L14.2453 30.0289C15.1039 30.5235 16.023 30.9048 16.9797 31.1633V32.5281C16.9776 32.8281 17.0848 33.1185 17.2812 33.3452C17.4776 33.5719 17.7497 33.7194 18.0468 33.7602C19.3405 33.9414 20.6532 33.9414 21.9468 33.7602C22.2447 33.7203 22.5178 33.5731 22.715 33.3463C22.9121 33.1195 23.0198 32.8286 23.0179 32.5281V31.1633C23.9747 30.9052 24.8938 30.5238 25.7523 30.0289L26.7187 30.9938C26.9299 31.2076 27.2118 31.3371 27.5117 31.3581C27.8115 31.3791 28.1087 31.2901 28.3476 31.1078C29.3915 30.3222 30.3198 29.3939 31.1054 28.35C31.2888 28.1112 31.3787 27.8136 31.3581 27.5133C31.3376 27.2129 31.208 26.9303 30.9937 26.7188L30.0289 25.7539C30.5235 24.8953 30.9048 23.9762 31.1633 23.0195L32.5281 23.0211ZM30.064 22.2594C29.8056 23.4155 29.3486 24.5181 28.7133 25.518C28.6371 25.6378 28.6041 25.7801 28.6196 25.9212C28.635 26.0624 28.6981 26.194 28.7984 26.2945L30.1062 27.6024C29.3924 28.5499 28.5493 29.3927 27.6015 30.1063L26.2945 28.7992C26.1941 28.6988 26.0625 28.6356 25.9213 28.62C25.7802 28.6043 25.6379 28.6373 25.5179 28.7133C24.5182 29.3489 23.4156 29.806 22.2593 30.0641C22.1207 30.0951 21.9968 30.1725 21.9081 30.2834C21.8193 30.3943 21.771 30.5322 21.7711 30.6742V32.5234C20.596 32.6871 19.4039 32.6871 18.2289 32.5234V30.6742C18.2289 30.5322 18.1806 30.3943 18.0919 30.2834C18.0031 30.1725 17.8792 30.0951 17.7406 30.0641C16.5844 29.8057 15.4819 29.3486 14.482 28.7133C14.3621 28.6372 14.2199 28.6041 14.0788 28.6196C13.9376 28.6351 13.806 28.6981 13.7054 28.7984L12.3976 30.1063C11.4515 29.3922 10.61 28.5491 9.89763 27.6016L11.2047 26.2945C11.3051 26.1941 11.3683 26.0625 11.3839 25.9213C11.3996 25.7802 11.3666 25.6379 11.2906 25.518C10.655 24.5182 10.1979 23.4156 9.93982 22.2594C9.90874 22.1208 9.83138 21.9969 9.72047 21.9081C9.60955 21.8194 9.47171 21.771 9.32966 21.7711H7.47654C7.31247 20.5961 7.31247 19.4039 7.47654 18.2289H9.32497C9.46703 18.229 9.60487 18.1807 9.71578 18.0919C9.82669 18.0031 9.90406 17.8792 9.93513 17.7406C10.1934 16.5844 10.6504 15.4819 11.2859 14.482C11.3619 14.3621 11.3949 14.2198 11.3792 14.0787C11.3636 13.9375 11.3004 13.8059 11.2 13.7055L9.89294 12.3977C10.607 11.4515 11.4501 10.61 12.3976 9.89767L13.7047 11.2055C13.8052 11.3058 13.9368 11.3689 14.078 11.3843C14.2191 11.3998 14.3614 11.3668 14.4812 11.2906C15.4811 10.6553 16.5837 10.1982 17.7398 9.93985C17.8784 9.90878 18.0023 9.83141 18.0911 9.7205C18.1798 9.60959 18.2282 9.47175 18.2281 9.3297V7.47657C19.4032 7.3129 20.5952 7.3129 21.7703 7.47657V9.32501C21.7702 9.46706 21.8185 9.6049 21.9073 9.71581C21.9961 9.82673 22.12 9.90409 22.2586 9.93517C23.4147 10.1936 24.5173 10.6506 25.5172 11.2859C25.637 11.3621 25.7792 11.3951 25.9204 11.3796C26.0615 11.3642 26.1932 11.3011 26.2937 11.2008L27.6015 9.89298C28.5491 10.6068 29.3919 11.4499 30.1054 12.3977L28.7984 13.7047C28.698 13.8051 28.6348 13.9367 28.6191 14.0779C28.6035 14.219 28.6364 14.3613 28.7125 14.4813C29.3481 15.481 29.8052 16.5836 30.0633 17.7399C30.0943 17.8785 30.1717 18.0024 30.2826 18.0911C30.3935 18.1799 30.5314 18.2282 30.6734 18.2281H32.5234C32.6875 19.4032 32.6875 20.5953 32.5234 21.7703H30.6742C30.532 21.7703 30.3941 21.8187 30.2832 21.9076C30.1723 21.9966 30.095 22.1206 30.064 22.2594ZM20 12.6164C18.5396 12.6164 17.1121 13.0495 15.8979 13.8608C14.6836 14.6721 13.7373 15.8253 13.1784 17.1744C12.6196 18.5236 12.4734 20.0082 12.7583 21.4405C13.0432 22.8728 13.7464 24.1884 14.779 25.221C15.8116 26.2536 17.1272 26.9568 18.5595 27.2417C19.9918 27.5266 21.4764 27.3804 22.8256 26.8216C24.1747 26.2627 25.3279 25.3163 26.1392 24.1021C26.9505 22.8879 27.3836 21.4603 27.3836 20C27.3813 18.0425 26.6027 16.1657 25.2185 14.7815C23.8343 13.3973 21.9575 12.6187 20 12.6164ZM20 26.132C18.7868 26.132 17.6009 25.7723 16.5922 25.0982C15.5835 24.4242 14.7973 23.4662 14.3331 22.3453C13.8689 21.2245 13.7476 19.9911 13.9844 18.8013C14.2211 17.6114 14.8055 16.5185 15.6634 15.6608C16.5214 14.8031 17.6144 14.219 18.8043 13.9825C19.9942 13.746 21.2275 13.8677 22.3483 14.3322C23.469 14.7967 24.4268 15.5831 25.1006 16.5919C25.7744 17.6008 26.1339 18.7868 26.1336 20C26.1317 21.6262 25.4849 23.1852 24.335 24.3351C23.1852 25.4849 21.6261 26.1317 20 26.1336V26.132ZM6.65779 7.72813C6.0322 8.40747 5.45969 9.13382 4.94529 9.90079C4.89953 9.96902 4.84078 10.0276 4.7724 10.0731C4.70402 10.1186 4.62734 10.1502 4.54674 10.1661C4.46614 10.182 4.3832 10.1818 4.30266 10.1657C4.22211 10.1495 4.14554 10.1176 4.07732 10.0719C4.00909 10.0261 3.95055 9.96738 3.90503 9.899C3.8595 9.83061 3.8279 9.75393 3.81201 9.67334C3.79612 9.59274 3.79626 9.5098 3.81243 9.42925C3.8286 9.34871 3.86047 9.27214 3.90622 9.20392C4.45695 8.38403 5.06968 7.60754 5.73904 6.88126C5.85262 6.76469 6.00721 6.69703 6.16991 6.69266C6.33261 6.6883 6.49059 6.74757 6.61027 6.85789C6.72994 6.9682 6.80186 7.12084 6.81074 7.28336C6.81961 7.44588 6.76474 7.60545 6.65779 7.72813ZM8.79451 4.9547C8.7 4.81864 8.66337 4.65064 8.69267 4.48759C8.72197 4.32455 8.81479 4.1798 8.95076 4.08517C12.2955 1.76339 16.2867 0.554125 20.3576 0.629012C24.4286 0.703899 28.3725 2.05913 31.6297 4.50235L31.4195 3.91954C31.3646 3.76394 31.3734 3.59295 31.4441 3.44385C31.5148 3.29475 31.6416 3.17965 31.7968 3.12365C31.952 3.06765 32.123 3.0753 32.2726 3.14493C32.4222 3.21456 32.5382 3.34051 32.5953 3.49532L33.6039 6.28985C33.638 6.38428 33.6489 6.48554 33.6356 6.58506C33.6223 6.68458 33.5853 6.77944 33.5275 6.8616C33.4698 6.94376 33.3932 7.01081 33.3041 7.05707C33.215 7.10333 33.116 7.12744 33.0156 7.12735C32.9786 7.12746 32.9418 7.12406 32.9054 7.1172L29.9812 6.59298C29.9004 6.57851 29.8233 6.54827 29.7542 6.50399C29.6851 6.45971 29.6254 6.40225 29.5785 6.33489C29.5316 6.26753 29.4984 6.19159 29.4808 6.11141C29.4633 6.03123 29.4617 5.94838 29.4761 5.86759C29.4906 5.78679 29.5208 5.70964 29.5651 5.64053C29.6094 5.57142 29.6669 5.51172 29.7342 5.46482C29.8016 5.41791 29.8775 5.38474 29.9577 5.36719C30.0379 5.34963 30.1207 5.34804 30.2015 5.36251L30.8484 5.47892C27.8016 3.20417 24.1168 1.9448 20.315 1.8789C16.5133 1.81301 12.7871 2.94393 9.66326 5.11173C9.52717 5.20591 9.35928 5.24227 9.19641 5.21283C9.03355 5.1834 8.88901 5.09056 8.79451 4.9547ZM2.40857 24.375C2.44801 24.5356 2.42223 24.7052 2.33686 24.8468C2.2515 24.9884 2.1135 25.0904 1.9531 25.1305C1.90362 25.1434 1.85269 25.15 1.80154 25.15C1.66206 25.1499 1.52661 25.1032 1.41675 25.0173C1.30689 24.9314 1.22894 24.8111 1.19529 24.6758C0.995395 23.8738 0.846916 23.0599 0.750755 22.2391C0.7339 22.0757 0.782056 21.9122 0.884805 21.784C0.987554 21.6558 1.13663 21.5733 1.29979 21.5542C1.46295 21.5351 1.62707 21.581 1.75664 21.682C1.88622 21.7829 1.97082 21.9309 1.99216 22.0938C2.08205 22.8623 2.22114 23.6243 2.40857 24.375ZM0.629662 19.4422C0.652612 18.6642 0.722531 17.8883 0.839037 17.1188C0.851348 17.0376 0.879523 16.9597 0.921953 16.8894C0.964384 16.8191 1.02024 16.7579 1.08633 16.7092C1.15242 16.6606 1.22745 16.6254 1.30713 16.6057C1.38682 16.586 1.4696 16.5822 1.55076 16.5945C1.63191 16.6069 1.70984 16.635 1.78011 16.6775C1.85037 16.7199 1.91159 16.7757 1.96027 16.8418C2.00894 16.9079 2.04413 16.983 2.06381 17.0626C2.08349 17.1423 2.08729 17.2251 2.07497 17.3063C1.96599 18.0259 1.90051 18.7514 1.87888 19.4789C1.874 19.6414 1.80601 19.7956 1.68932 19.9088C1.57264 20.022 1.41644 20.0852 1.25388 20.0852H1.23513C1.06962 20.0801 0.912903 20.0095 0.799383 19.8889C0.685864 19.7684 0.624822 19.6077 0.629662 19.4422ZM3.49138 12.5164C3.17222 13.2219 2.89848 13.9471 2.67185 14.6875C2.62268 14.8452 2.51309 14.977 2.36703 15.0541C2.22097 15.1312 2.05032 15.1474 1.89237 15.0991C1.73443 15.0508 1.60203 14.9419 1.52411 14.7963C1.44619 14.6507 1.42908 14.4801 1.47654 14.3219C1.71872 13.5301 2.01124 12.7545 2.35232 12C2.38612 11.9252 2.43433 11.8578 2.49418 11.8017C2.55404 11.7455 2.62436 11.7017 2.70115 11.6727C2.77794 11.6437 2.85969 11.6301 2.94173 11.6327C3.02376 11.6354 3.10448 11.6541 3.17927 11.6879C3.25406 11.7217 3.32146 11.7699 3.37763 11.8298C3.43379 11.8896 3.47761 11.9599 3.50659 12.0367C3.53558 12.1135 3.54915 12.1953 3.54654 12.2773C3.54393 12.3593 3.52519 12.4401 3.49138 12.5149V12.5164ZM37.5914 15.625C37.5513 15.4641 37.5767 15.2939 37.6622 15.1518C37.7476 15.0097 37.886 14.9073 38.0468 14.8672C38.2077 14.8271 38.378 14.8526 38.5201 14.938C38.6622 15.0234 38.7646 15.1618 38.8047 15.3227C39.0045 16.1246 39.153 16.9385 39.2492 17.7594C39.2684 17.9238 39.2215 18.089 39.119 18.2189C39.0165 18.3488 38.8666 18.4328 38.7023 18.4524C38.678 18.4555 38.6534 18.457 38.6289 18.457C38.4759 18.4567 38.3284 18.4004 38.2142 18.2986C38.1 18.1968 38.0271 18.0566 38.0093 17.9047C37.9192 17.1366 37.7796 16.3751 37.5914 15.625ZM39.3703 20.5563C39.3473 21.3342 39.2774 22.1101 39.1609 22.8797C39.1385 23.0274 39.0639 23.1622 38.9507 23.2596C38.8375 23.3571 38.6931 23.4108 38.5437 23.4109C38.5121 23.4109 38.4805 23.4086 38.4492 23.4039C38.368 23.3916 38.2901 23.3634 38.2198 23.321C38.1496 23.2786 38.0883 23.2227 38.0397 23.1566C37.991 23.0905 37.9558 23.0155 37.9361 22.9358C37.9164 22.8561 37.9127 22.7733 37.925 22.6922C38.0352 21.9732 38.102 21.2482 38.125 20.5211C38.1298 20.3553 38.2004 20.1983 38.321 20.0845C38.4417 19.9708 38.6026 19.9096 38.7683 19.9145C38.9341 19.9193 39.0911 19.9898 39.2049 20.1105C39.3187 20.2312 39.3798 20.3921 39.375 20.5578L39.3703 20.5563ZM36.0937 30.7961C35.5433 31.616 34.9308 32.3925 34.2617 33.1188C34.2068 33.1817 34.1398 33.2331 34.0648 33.2697C33.9897 33.3064 33.9081 33.3276 33.8246 33.3321C33.7412 33.3367 33.6578 33.3245 33.5792 33.2962C33.5005 33.268 33.4284 33.2242 33.367 33.1676C33.3056 33.111 33.2561 33.0426 33.2215 32.9666C33.187 32.8905 33.168 32.8083 33.1658 32.7248C33.1636 32.6413 33.1781 32.5582 33.2085 32.4804C33.2389 32.4026 33.2846 32.3317 33.3429 32.2719C33.9685 31.5925 34.541 30.8662 35.0554 30.0992C35.1012 30.0311 35.1599 29.9726 35.2283 29.9271C35.2967 29.8816 35.3733 29.85 35.4539 29.8342C35.5344 29.8183 35.6173 29.8185 35.6978 29.8347C35.7783 29.8509 35.8548 29.8828 35.923 29.9285C35.9912 29.9743 36.0497 30.033 36.0952 30.1014C36.1406 30.1697 36.1722 30.2464 36.1881 30.327C36.2039 30.4075 36.2037 30.4904 36.1875 30.5709C36.1714 30.6514 36.1395 30.7279 36.0937 30.7961ZM38.5242 25.6766C38.282 26.4684 37.9895 27.2439 37.6484 27.9984C37.5801 28.1495 37.4547 28.2672 37.2996 28.3258C37.1445 28.3843 36.9725 28.3788 36.8215 28.3106C36.6704 28.2423 36.5527 28.1168 36.4941 27.9617C36.4356 27.8066 36.4411 27.6347 36.5093 27.4836C36.8282 26.7781 37.1017 26.0529 37.3281 25.3125C37.3773 25.1548 37.4869 25.023 37.6329 24.9459C37.779 24.8688 37.9496 24.8526 38.1076 24.9009C38.2655 24.9492 38.3979 25.0581 38.4758 25.2037C38.5538 25.3494 38.5709 25.5199 38.5234 25.6781L38.5242 25.6766ZM31.2054 35.0453C31.2999 35.1814 31.3366 35.3494 31.3073 35.5124C31.278 35.6755 31.1852 35.8202 31.0492 35.9149C27.7043 38.2363 23.7133 39.4454 19.6425 39.3707C15.5716 39.2959 11.6277 37.9411 8.37029 35.4984L8.58044 36.0805C8.62248 36.2322 8.60572 36.3942 8.5335 36.5341C8.46127 36.674 8.33891 36.7815 8.19088 36.8351C8.04284 36.8886 7.88004 36.8844 7.735 36.8231C7.58997 36.7619 7.47339 36.6482 7.40857 36.5047L6.39451 33.7102C6.35724 33.6069 6.34782 33.4957 6.36718 33.3877C6.38654 33.2797 6.43401 33.1787 6.5048 33.0948C6.57559 33.0109 6.66722 32.9472 6.77046 32.91C6.87371 32.8728 6.98493 32.8634 7.09294 32.8828L10.0172 33.407C10.098 33.4215 10.1751 33.4517 10.2442 33.496C10.3133 33.5403 10.373 33.5978 10.4199 33.6651C10.4668 33.7325 10.5 33.8084 10.5176 33.8886C10.5351 33.9688 10.5367 34.0516 10.5222 34.1324C10.5078 34.2132 10.4775 34.2904 10.4333 34.3595C10.389 34.4286 10.3315 34.4883 10.2641 34.5352C10.1968 34.5821 10.1209 34.6153 10.0407 34.6328C9.96049 34.6504 9.87764 34.652 9.79685 34.6375L9.14997 34.5219C12.197 36.7962 15.8818 38.0552 19.6835 38.121C23.4851 38.1867 27.2113 37.0559 30.3351 34.8883C30.4026 34.8414 30.4786 34.8083 30.5588 34.7908C30.6391 34.7733 30.722 34.7718 30.8028 34.7864C30.8837 34.801 30.9608 34.8314 31.0299 34.8758C31.099 34.9202 31.1586 34.9778 31.2054 35.0453Z" fill="black"/>
</g>
<defs>
<clipPath id="clip0_2001_109">
<rect width="40" height="40" fill="white"/>
</clipPath>
</defs>
</svg>
