<svg width="114" height="68" viewBox="0 0 114 68" fill="none" xmlns="http://www.w3.org/2000/svg">
<g clip-path="url(#clip0_98_961)">
<path d="M11.4533 10.7558C11.1341 11.1029 10.8031 11.4141 10.4604 11.6894C10.1176 11.9648 9.73935 12.2042 9.32567 12.4077C8.92378 12.5992 8.48059 12.7429 7.99601 12.8386C7.51137 12.9464 6.96767 13.0003 6.36487 13.0003C5.45476 13.0003 4.60965 12.8327 3.82956 12.4975C3.04946 12.1623 2.37574 11.7074 1.8084 11.1328C1.24106 10.5462 0.797828 9.85794 0.478695 9.06788C0.159565 8.27781 0 7.43385 0 6.53604V6.50014C0 5.60232 0.159565 4.76437 0.478695 3.98627C0.797828 3.1962 1.24106 2.50788 1.8084 1.92131C2.37574 1.32277 3.05537 0.855907 3.84729 0.520728C4.6392 0.173576 5.51385 0 6.47124 0C7.05041 0 7.57638 0.0478828 8.04918 0.143648C8.53376 0.239415 8.9711 0.371093 9.36112 0.538684C9.75122 0.706276 10.1117 0.909777 10.4426 1.14919C10.7736 1.38861 11.0809 1.65197 11.3646 1.93927L9.62707 3.96831C9.14249 3.5254 8.64604 3.17824 8.1378 2.92685C7.64139 2.67547 7.07995 2.54978 6.45352 2.54978C5.93345 2.54978 5.44885 2.65153 4.9997 2.85503C4.56237 3.05854 4.18414 3.33984 3.86501 3.69897C3.54588 4.05809 3.29768 4.47707 3.12038 4.9559C2.94309 5.42276 2.85444 5.92554 2.85444 6.46422V6.50014C2.85444 7.03882 2.94309 7.54757 3.12038 8.02637C3.29768 8.50522 3.53998 8.92421 3.84729 9.28334C4.16642 9.64248 4.54465 9.92974 4.98197 10.1452C5.43112 10.3487 5.92163 10.4505 6.45352 10.4505C7.16269 10.4505 7.75958 10.3188 8.24415 10.0555C8.7406 9.79208 9.23111 9.43294 9.71577 8.97806L11.4533 10.7558Z" fill="white"/>
<path d="M25.5532 12.7848H22.6987L21.564 9.96568H16.3161L15.1814 12.7848H12.3979L17.7168 0.125732H20.2344L25.5532 12.7848ZM20.5889 7.52367L18.9401 3.44762L17.2913 7.52367H20.5889Z" fill="white"/>
<path d="M38.319 12.7848H35.9964L29.9861 4.79427V12.7848H27.2913V0.215454H29.8089L35.6241 7.95456V0.215454H38.319V12.7848Z" fill="white"/>
<path d="M53.762 6.50014C53.762 7.39794 53.5966 8.24192 53.2656 9.03198C52.9346 9.81003 52.4736 10.4984 51.8827 11.0969C51.3035 11.6835 50.6062 12.1503 49.7906 12.4975C48.9869 12.8327 48.1064 13.0003 47.1489 13.0003C46.1916 13.0003 45.311 12.8327 44.5072 12.4975C43.7035 12.1503 43.0062 11.6894 42.4152 11.1148C41.836 10.5283 41.381 9.846 41.05 9.06788C40.7309 8.27781 40.5714 7.43385 40.5714 6.53604V6.50014C40.5714 5.60232 40.7368 4.76437 41.0677 3.98627C41.3987 3.1962 41.8538 2.50788 42.4329 1.92131C43.0239 1.32277 43.7213 0.855907 44.525 0.520728C45.3405 0.173576 46.227 0 47.1844 0C48.1418 0 49.0223 0.173576 49.8261 0.520728C50.6298 0.855907 51.3212 1.31679 51.9005 1.90335C52.4914 2.47795 52.9464 3.16028 53.2656 3.95036C53.5966 4.72846 53.762 5.56641 53.762 6.46422V6.50014ZM50.9076 6.53604V6.50014C50.9076 5.96145 50.813 5.45269 50.6239 4.97386C50.4466 4.49503 50.1865 4.07605 49.8438 3.71693C49.5129 3.3578 49.1169 3.07649 48.656 2.87298C48.195 2.65751 47.6927 2.54978 47.1489 2.54978C46.5934 2.54978 46.0852 2.65153 45.6242 2.85503C45.1751 3.05854 44.7851 3.33984 44.4541 3.69897C44.1349 4.05809 43.8808 4.47707 43.6917 4.9559C43.5144 5.42276 43.4257 5.92554 43.4257 6.46422V6.50014C43.4257 7.03882 43.5144 7.54757 43.6917 8.02637C43.8808 8.50522 44.1409 8.92421 44.4718 9.28334C44.8146 9.64248 45.2105 9.92974 45.6597 10.1452C46.1206 10.3487 46.6289 10.4505 47.1844 10.4505C47.7281 10.4505 48.2304 10.3487 48.6914 10.1452C49.1523 9.94176 49.5424 9.66043 49.8616 9.30129C50.1925 8.94216 50.4466 8.52918 50.6239 8.06235C50.813 7.58349 50.9076 7.07473 50.9076 6.53604Z" fill="white"/>
<path d="M67.0344 12.7848H64.7119L58.7016 4.79427V12.7848H56.0067V0.215454H58.5243L64.3396 7.95456V0.215454H67.0344V12.7848Z" fill="white"/>
<path d="M11.0986 27.7422C11.0986 28.3168 10.9863 28.8196 10.7617 29.2505C10.5489 29.6815 10.2357 30.0406 9.82206 30.3279C9.42017 30.6152 8.92966 30.8307 8.35053 30.9743C7.78317 31.118 7.15082 31.1898 6.45346 31.1898H0.549561V18.6205H6.31163C7.58815 18.6205 8.58688 18.9138 9.30789 19.5004C10.0407 20.0869 10.4071 20.877 10.4071 21.8706V21.9065C10.4071 22.2656 10.3598 22.5828 10.2653 22.8581C10.1826 23.1335 10.0644 23.3848 9.91069 23.6123C9.76889 23.8278 9.5975 24.0193 9.39651 24.1869C9.2074 24.3545 9.00056 24.4981 8.776 24.6178C9.49701 24.8932 10.0644 25.2703 10.478 25.7491C10.8917 26.2159 11.0986 26.8683 11.0986 27.7063V27.7422ZM7.69453 22.3733V22.3374C7.69453 21.9184 7.54087 21.6013 7.23356 21.3857C6.92624 21.1583 6.48301 21.0446 5.90385 21.0446H3.20898V23.7021H5.72656C6.32936 23.7021 6.80805 23.6003 7.16264 23.3969C7.51723 23.1814 7.69453 22.8402 7.69453 22.3733ZM8.38598 27.401V27.3651C8.38598 26.9461 8.22638 26.617 7.90725 26.3775C7.58815 26.1262 7.07399 26.0005 6.36482 26.0005H3.20898V28.7657H6.45346C7.05627 28.7657 7.52905 28.658 7.8718 28.4425C8.21458 28.215 8.38598 27.8679 8.38598 27.401Z" fill="white"/>
<path d="M23.7872 25.7132C23.7872 26.6708 23.6572 27.5028 23.3972 28.2091C23.149 28.9154 22.7885 29.5079 22.3157 29.9868C21.8429 30.4536 21.2697 30.8067 20.5959 31.0461C19.9222 31.2736 19.1717 31.3873 18.3443 31.3873C16.6778 31.3873 15.3657 30.9205 14.4084 29.9868C13.451 29.053 12.9723 27.6584 12.9723 25.8029V18.6205H15.7026V25.7311C15.7026 26.7606 15.939 27.5387 16.4118 28.0654C16.8846 28.5802 17.5406 28.8376 18.3798 28.8376C19.2189 28.8376 19.875 28.5862 20.3478 28.0834C20.8206 27.5806 21.0569 26.8265 21.0569 25.8209V18.6205H23.7872V25.7132Z" fill="white"/>
<path d="M35.3621 27.4729C35.3621 28.0953 35.2498 28.652 35.0252 29.1428C34.8007 29.6216 34.4875 30.0287 34.0856 30.3639C33.6837 30.687 33.2051 30.9385 32.6495 31.118C32.0939 31.2856 31.4794 31.3694 30.8057 31.3694C29.8601 31.3694 28.9322 31.2078 28.0221 30.8845C27.112 30.5493 26.2846 30.0406 25.54 29.3583L27.1534 27.401C27.7207 27.8679 28.2999 28.239 28.8909 28.5143C29.4937 28.7896 30.1496 28.9273 30.8588 28.9273C31.4262 28.9273 31.8635 28.8255 32.1708 28.6221C32.4899 28.4066 32.6495 28.1133 32.6495 27.7422V27.7063C32.6495 27.5267 32.6141 27.3711 32.5432 27.2395C32.484 27.0958 32.3599 26.9642 32.1708 26.8445C31.9935 26.7247 31.7394 26.605 31.4085 26.4853C31.0893 26.3656 30.6697 26.2399 30.1496 26.1082C29.5232 25.9526 28.9559 25.779 28.4477 25.5875C27.9393 25.396 27.5079 25.1626 27.1534 24.8872C26.7988 24.5999 26.5211 24.2468 26.3201 23.8278C26.131 23.4088 26.0364 22.888 26.0364 22.2656V22.2297C26.0364 21.6551 26.1428 21.1404 26.3555 20.6855C26.5683 20.2186 26.8638 19.8176 27.242 19.4824C27.6321 19.1472 28.093 18.8899 28.6249 18.7103C29.1568 18.5307 29.7419 18.4409 30.3801 18.4409C31.2902 18.4409 32.1235 18.5786 32.88 18.8539C33.6483 19.1292 34.3515 19.5243 34.9898 20.039L33.5714 22.1219C33.0159 21.7389 32.4722 21.4396 31.9404 21.2242C31.4085 20.9967 30.8766 20.883 30.3447 20.883C29.8128 20.883 29.411 20.9907 29.1391 21.2061C28.8791 21.4097 28.7491 21.667 28.7491 21.9783V22.0142C28.7491 22.2177 28.7845 22.3973 28.8554 22.5529C28.9382 22.6965 29.08 22.8283 29.2809 22.9479C29.4819 23.0676 29.7537 23.1814 30.0964 23.2891C30.451 23.3969 30.8943 23.5225 31.4262 23.6662C32.0526 23.8338 32.6081 24.0253 33.0928 24.2408C33.5891 24.4443 34.0028 24.6957 34.3338 24.9949C34.6766 25.2822 34.9307 25.6234 35.0962 26.0184C35.2735 26.4134 35.3621 26.8863 35.3621 27.437V27.4729Z" fill="white"/>
<path d="M40.4088 31.1898H37.6785V18.6205H40.4088V31.1898Z" fill="white"/>
<path d="M54.3606 31.1898H52.0381L46.0278 23.1993V31.1898H43.3329V18.6205H45.8506L51.6658 26.3596V18.6205H54.3606V31.1898Z" fill="white"/>
<path d="M66.6124 31.1898H57.1627V18.6205H66.5238V21.0805H59.8752V23.6303H65.7259V26.0903H59.8752V28.7298H66.6124V31.1898Z" fill="white"/>
<path d="M77.8337 27.4729C77.8337 28.0953 77.7214 28.652 77.4969 29.1428C77.2723 29.6216 76.9591 30.0287 76.5572 30.3639C76.1553 30.687 75.6766 30.9385 75.1211 31.118C74.5656 31.2856 73.951 31.3694 73.2773 31.3694C72.3317 31.3694 71.4039 31.2078 70.4938 30.8845C69.5836 30.5493 68.7563 30.0406 68.0116 29.3583L69.625 27.401C70.1924 27.8679 70.7715 28.239 71.3625 28.5143C71.9653 28.7896 72.6213 28.9273 73.3305 28.9273C73.8978 28.9273 74.3351 28.8255 74.6424 28.6221C74.9615 28.4066 75.1211 28.1133 75.1211 27.7422V27.7063C75.1211 27.5267 75.0857 27.3711 75.0148 27.2395C74.9557 27.0958 74.8315 26.9642 74.6424 26.8445C74.4652 26.7247 74.211 26.605 73.8801 26.4853C73.561 26.3656 73.1414 26.2399 72.6213 26.1082C71.9948 25.9526 71.4275 25.779 70.9192 25.5875C70.411 25.396 69.9796 25.1626 69.625 24.8872C69.2704 24.5999 68.9926 24.2468 68.7917 23.8278C68.6026 23.4088 68.508 22.888 68.508 22.2656V22.2297C68.508 21.6551 68.6144 21.1404 68.8272 20.6855C69.0399 20.2186 69.3354 19.8176 69.7136 19.4824C70.1037 19.1472 70.5646 18.8899 71.0965 18.7103C71.6284 18.5307 72.2135 18.4409 72.8518 18.4409C73.7619 18.4409 74.5952 18.5786 75.3516 18.8539C76.1199 19.1292 76.8232 19.5243 77.4614 20.039L76.043 22.1219C75.4875 21.7389 74.9438 21.4396 74.4119 21.2242C73.8801 20.9967 73.3482 20.883 72.8163 20.883C72.2844 20.883 71.8825 20.9907 71.6107 21.2061C71.3507 21.4097 71.2206 21.667 71.2206 21.9783V22.0142C71.2206 22.2177 71.2561 22.3973 71.327 22.5529C71.4097 22.6965 71.5516 22.8283 71.7525 22.9479C71.9535 23.0676 72.2253 23.1814 72.5681 23.2891C72.9227 23.3969 73.3659 23.5225 73.8978 23.6662C74.5243 23.8338 75.0798 24.0253 75.5643 24.2408C76.0608 24.4443 76.4745 24.6957 76.8054 24.9949C77.1482 25.2822 77.4023 25.6234 77.5678 26.0184C77.7451 26.4134 77.8337 26.8863 77.8337 27.437V27.4729Z" fill="white"/>
<path d="M88.9973 27.4729C88.9973 28.0953 88.8849 28.652 88.66 29.1428C88.4359 29.6216 88.1228 30.0287 87.7207 30.3639C87.3185 30.687 86.8399 30.9385 86.2847 31.118C85.7288 31.2856 85.1143 31.3694 84.4404 31.3694C83.4949 31.3694 82.5672 31.2078 81.6568 30.8845C80.7471 30.5493 79.9195 30.0406 79.1754 29.3583L80.7885 27.401C81.3554 27.8679 81.9348 28.239 82.5259 28.5143C83.1287 28.7896 83.7845 28.9273 84.4935 28.9273C85.0612 28.9273 85.4984 28.8255 85.8061 28.6221C86.1247 28.4066 86.2847 28.1133 86.2847 27.7422V27.7063C86.2847 27.5267 86.2488 27.3711 86.1778 27.2395C86.1192 27.0958 85.995 26.9642 85.8061 26.8445C85.6288 26.7247 85.3743 26.605 85.0432 26.4853C84.7247 26.3656 84.3046 26.2399 83.7845 26.1082C83.1583 25.9526 82.5907 25.779 82.0824 25.5875C81.574 25.396 81.143 25.1626 80.7885 24.8872C80.434 24.5999 80.1561 24.2468 79.9554 23.8278C79.7657 23.4088 79.6712 22.888 79.6712 22.2656V22.2297C79.6712 21.6551 79.7781 21.1404 79.9905 20.6855C80.2029 20.2186 80.4988 19.8176 80.8768 19.4824C81.2672 19.1472 81.7279 18.8899 82.2596 18.7103C82.7921 18.5307 83.377 18.4409 84.0149 18.4409C84.9253 18.4409 85.7585 18.5786 86.5151 18.8539C87.2834 19.1292 87.9861 19.5243 88.6249 20.039L87.2061 22.1219C86.6509 21.7389 86.1075 21.4396 85.575 21.2242C85.0432 20.9967 84.5115 20.883 83.9798 20.883C83.448 20.883 83.0459 20.9907 82.7742 21.2061C82.5141 21.4097 82.3838 21.667 82.3838 21.9783V22.0142C82.3838 22.2177 82.4197 22.3973 82.4907 22.5529C82.5735 22.6965 82.7148 22.8283 82.9155 22.9479C83.1169 23.0676 83.3887 23.1814 83.7314 23.2891C84.0859 23.3969 84.5295 23.5225 85.0612 23.6662C85.6874 23.8338 86.2434 24.0253 86.7275 24.2408C87.2241 24.4443 87.6379 24.6957 87.969 24.9949C88.3118 25.2822 88.5655 25.6234 88.7311 26.0184C88.9083 26.4134 88.9973 26.8863 88.9973 27.437V27.4729Z" fill="white"/>
<path d="M11.4533 47.566C11.1341 47.9131 10.8031 48.2243 10.4604 48.4996C10.1176 48.7749 9.73935 49.0144 9.32567 49.2179C8.92378 49.4094 8.48059 49.5531 7.99601 49.6488C7.51137 49.7566 6.96767 49.8104 6.36487 49.8104C5.45476 49.8104 4.60965 49.6429 3.82956 49.3077C3.04946 48.9725 2.37574 48.5176 1.8084 47.943C1.24106 47.3564 0.797828 46.6681 0.478695 45.8781C0.159565 45.088 0 44.244 0 43.3462V43.3103C0 42.4125 0.159565 41.5745 0.478695 40.7965C0.797828 40.0064 1.24106 39.318 1.8084 38.7315C2.37574 38.1329 3.05537 37.6661 3.84729 37.3309C4.6392 36.9837 5.51385 36.8102 6.47124 36.8102C7.05041 36.8102 7.57638 36.8581 8.04918 36.9538C8.53376 37.0496 8.9711 37.1813 9.36112 37.3489C9.75122 37.5164 10.1117 37.72 10.4426 37.9594C10.7736 38.1988 11.0809 38.4622 11.3646 38.7494L9.62707 40.7785C9.14249 40.3356 8.64604 39.9884 8.1378 39.737C7.64139 39.4857 7.07995 39.3599 6.45352 39.3599C5.93345 39.3599 5.44885 39.4617 4.9997 39.6652C4.56237 39.8687 4.18414 40.15 3.86501 40.5091C3.54588 40.8683 3.29768 41.2873 3.12038 41.7661C2.94309 42.2329 2.85444 42.7357 2.85444 43.2744V43.3103C2.85444 43.849 2.94309 44.3578 3.12038 44.8366C3.29768 45.3154 3.53998 45.7344 3.84729 46.0935C4.16642 46.4527 4.54465 46.7399 4.98197 46.9554C5.43112 47.1589 5.92163 47.2607 6.45352 47.2607C7.16269 47.2607 7.75958 47.129 8.24415 46.8656C8.7406 46.6023 9.23111 46.2431 9.71577 45.7882L11.4533 47.566Z" fill="white"/>
<path d="M22.9114 49.595H13.4615V37.0256H22.8227V39.4857H16.1742V42.0354H22.0249V44.4954H16.1742V47.1349H22.9114V49.595Z" fill="white"/>
<path d="M36.1893 49.595H33.8668L27.8565 41.6045V49.595H25.1616V37.0256H27.6792L33.4945 44.7647V37.0256H36.1893V49.595Z" fill="white"/>
<path d="M48.3879 39.5754H44.6115V49.595H41.8812V39.5754H38.1049V37.0256H48.3879V39.5754Z" fill="white"/>
<path d="M59.7603 49.595H50.3105V37.0256H59.6716V39.4857H53.0231V42.0354H58.8738V44.4954H53.0231V47.1349H59.7603V49.595Z" fill="white"/>
<path d="M72.7369 49.595H69.5456L66.8861 45.5728H64.7409V49.595H62.0106V37.0256H67.6839C69.1614 37.0256 70.3079 37.3908 71.1235 38.121C71.9508 38.8512 72.3645 39.8687 72.3645 41.1736V41.2095C72.3645 42.2269 72.1163 43.0589 71.6199 43.7054C71.1353 44.3398 70.497 44.8067 69.7051 45.1059L72.7369 49.595ZM69.5987 41.353V41.3171C69.5987 40.7187 69.4096 40.2697 69.0314 39.9704C68.6532 39.6712 68.1272 39.5216 67.4534 39.5216H64.7409V43.1308H67.5067C68.1804 43.1308 68.6945 42.9692 69.0491 42.6459C69.4156 42.3227 69.5987 41.8917 69.5987 41.353Z" fill="white"/>
<path d="M11.5773 68H9.25472L3.24443 60.0095V68H0.549561V55.4307H3.06714L8.88242 63.1698V55.4307H11.5773V68Z" fill="#7F7F7F"/>
<path d="M23.829 68H14.3793V55.4307H23.7404V57.8907H17.0918V60.4404H22.9425V62.9005H17.0918V65.54H23.829V68Z" fill="#7F7F7F"/>
<path d="M37.5149 61.7154C37.5149 62.6012 37.3553 63.4271 37.0362 64.1933C36.717 64.9594 36.262 65.6238 35.671 66.1864C35.0918 66.749 34.3945 67.192 33.5789 67.5151C32.7752 67.8384 31.8887 68 30.9195 68H26.0793V55.4307H30.9195C31.8887 55.4307 32.7752 55.5923 33.5789 55.9155C34.3945 56.2267 35.0918 56.6637 35.671 57.2263C36.262 57.7889 36.717 58.4533 37.0362 59.2195C37.3553 59.9736 37.5149 60.7936 37.5149 61.6794V61.7154ZM34.6604 61.7513V61.7154C34.6604 61.1646 34.5659 60.6559 34.3767 60.1891C34.1994 59.7222 33.9453 59.3211 33.6144 58.986C33.2952 58.6508 32.9052 58.3934 32.4442 58.2139C31.9833 58.0223 31.475 57.9266 30.9195 57.9266H28.8097V65.5041H30.9195C31.475 65.5041 31.9833 65.4143 32.4442 65.2348C32.9052 65.0552 33.2952 64.7978 33.6144 64.4626C33.9453 64.1275 34.1994 63.7324 34.3767 63.2775C34.5659 62.8227 34.6604 62.3138 34.6604 61.7513Z" fill="#7F7F7F"/>
<path d="M49.2202 68H39.7704V55.4307H49.1316V57.8907H42.483V60.4404H48.3337V62.9005H42.483V65.54H49.2202V68Z" fill="#7F7F7F"/>
<path d="M62.1968 68H59.0055L56.346 63.9778H54.2008V68H51.4705V55.4307H57.1439C58.6214 55.4307 59.7678 55.7958 60.5834 56.526C61.4108 57.2562 61.8245 58.2738 61.8245 59.5786V59.6145C61.8245 60.632 61.5762 61.4639 61.0799 62.1104C60.5952 62.7449 59.957 63.2117 59.165 63.511L62.1968 68ZM59.0587 59.7581V59.7222C59.0587 59.1236 58.8696 58.6747 58.4914 58.3755C58.1131 58.0762 57.5872 57.9266 56.9134 57.9266H54.2008V61.5358H56.9666C57.6403 61.5358 58.1545 61.3742 58.5091 61.0509C58.8754 60.7277 59.0587 60.2968 59.0587 59.7581Z" fill="#7F7F7F"/>
<path d="M73.0234 68H64.1055V55.4307H66.8358V65.4861H73.0234V68Z" fill="#7F7F7F"/>
<path d="M86.9969 68H84.1422L83.0076 65.1809H77.7597L76.625 68H73.8415L79.1605 55.3409H81.6779L86.9969 68ZM82.0324 62.7389L80.3833 58.6628L78.735 62.7389H82.0324Z" fill="#7F7F7F"/>
<path d="M99.7625 68H97.4403L91.4295 60.0095V68H88.7349V55.4307H91.2523L97.0679 63.1698V55.4307H99.7625V68Z" fill="#7F7F7F"/>
<path d="M114 61.7154C114 62.6012 113.841 63.4271 113.521 64.1933C113.202 64.9594 112.747 65.6238 112.157 66.1864C111.577 66.749 110.88 67.192 110.064 67.5151C109.26 67.8384 108.374 68 107.404 68H102.565V55.4307H107.404C108.374 55.4307 109.26 55.5923 110.064 55.9155C110.88 56.2267 111.577 56.6637 112.157 57.2263C112.747 57.7889 113.202 58.4533 113.521 59.2195C113.841 59.9736 114 60.7936 114 61.6794V61.7154ZM111.145 61.7513V61.7154C111.145 61.1646 111.051 60.6559 110.862 60.1891C110.685 59.7222 110.43 59.3211 110.1 58.986C109.78 58.6508 109.39 58.3934 108.929 58.2139C108.469 58.0223 107.96 57.9266 107.404 57.9266H105.295V65.5041H107.404C107.96 65.5041 108.469 65.4143 108.929 65.2348C109.39 65.0552 109.78 64.7978 110.1 64.4626C110.43 64.1275 110.685 63.7324 110.862 63.2775C111.051 62.8227 111.145 62.3138 111.145 61.7513Z" fill="#7F7F7F"/>
</g>
<defs>
<clipPath id="clip0_98_961">
<rect width="114" height="68" fill="white"/>
</clipPath>
</defs>
</svg>
