<svg width="120" height="77" viewBox="0 0 120 77" fill="none" xmlns="http://www.w3.org/2000/svg">
<path d="M31 0V77H88.9993V19.2493L72.4272 16.5002L69.6655 0H31Z" fill="white"/>
<path d="M69.6651 19.2488H88.9989V38.4981L69.6651 19.2488Z" fill="#C9C9C9"/>
<path d="M77.2369 44.3997H81.7484V57.7484H77.2369V44.3997Z" fill="#2D2D2D"/>
<path d="M81.7497 38.0095H77.2369V41.2046H81.7497V38.0095Z" fill="#2D2D2D"/>
<path d="M38.249 44.4006H42.7619V45.7386C43.8304 44.6478 45.3482 44.0547 47.5122 44.0547C52.0136 44.0547 55.0977 46.9274 55.0977 51.0629C55.0977 55.2742 51.9886 58.0973 47.4366 58.0973C46.5789 58.1494 45.7197 58.0219 44.9144 57.7232C44.1092 57.4245 43.3757 56.9612 42.7612 56.363V64.1483H38.249V44.4006ZM46.6912 54.8786C49.1042 54.8786 50.6219 53.4171 50.6219 51.0635C50.6219 48.7355 49.0792 47.2747 46.6912 47.2747C44.3033 47.2747 42.7619 48.7859 42.7619 51.0884C42.7619 53.3909 44.3033 54.8786 46.6912 54.8786Z" fill="#2D2D2D"/>
<path d="M69.1848 52.5233C68.9636 54.0009 67.6117 55.0252 65.7782 55.0252C63.5144 55.0252 62.0465 53.4891 62.0465 51.0866C62.0465 48.6605 63.5394 47.1237 65.7782 47.1237C67.6799 47.1237 68.8509 47.917 69.147 49.3268H73.7341C73.2127 45.8852 70.5373 43.9299 66.0272 43.9299C60.7055 43.9299 57.5492 46.7046 57.5492 51.0624C57.5492 55.3966 60.8067 58.221 65.7324 58.221C70.366 58.221 73.5155 55.8702 73.8946 52.5239L69.1848 52.5233Z" fill="#2D2D2D"/>
<path d="M88.9989 19.2493H69.6651V0L88.9989 19.2493Z" fill="#E9E9E9"/>
</svg>
