<svg width="111" height="39" viewBox="0 0 111 39" fill="none" xmlns="http://www.w3.org/2000/svg">
<g clip-path="url(#clip0_98_652)">
<path fill-rule="evenodd" clip-rule="evenodd" d="M43.5061 10.0427C43.5061 13.8701 46.3745 16.6954 51.1706 16.6954C53.1948 16.6954 55.0986 16.3823 57.072 15.4733L58.8699 17.8886C56.3849 19.1841 53.9984 19.8664 50.3307 19.8664C42.6807 19.8664 37.0572 16.2251 37.0572 10.0454V10.0427C37.0572 3.86289 42.6807 0.225464 50.3307 0.225464C53.9984 0.225464 56.1093 0.752157 58.6893 1.84725L56.8508 4.62783C54.895 3.60225 53.1948 3.39103 51.1706 3.39103C46.3745 3.39103 43.5061 6.21293 43.5061 10.0399" fill="white"/>
<path fill-rule="evenodd" clip-rule="evenodd" d="M72.6948 16.8097C68.6214 16.8097 66.3725 13.7863 66.3725 10.0403C66.3725 6.29635 68.6214 3.27057 72.6948 3.27057C76.7694 3.27057 79.021 6.29635 79.021 10.0403C79.021 13.7863 76.7694 16.8097 72.6948 16.8097ZM72.6948 0.219299C65.2887 0.219299 59.9474 3.86329 59.9474 10.0431C59.9474 16.2255 65.2887 19.866 72.6948 19.866C80.1037 19.866 85.4465 16.2255 85.4465 10.0431C85.4465 3.86329 80.1037 0.219299 72.6948 0.219299Z" fill="white"/>
<path fill-rule="evenodd" clip-rule="evenodd" d="M104.7 11.4644V19.3694H110.821V0.712769H104.7V7.82892H95.3435V0.712769H89.2366V19.3694H95.3435V11.4644H104.7Z" fill="white"/>
<path fill-rule="evenodd" clip-rule="evenodd" d="M26.9218 19.3687H33.368V0.712402H26.9218V19.3687Z" fill="white"/>
<path fill-rule="evenodd" clip-rule="evenodd" d="M8.43403 9.2538V11.0374C11.4631 13.3527 14.5519 16.4341 16.8181 19.3691H24.0338C21.5238 16.4557 17.6732 12.9939 14.8357 11.2501C18.1669 11.1158 21.876 9.78359 21.876 6.00638C21.876 1.16459 16.6347 0.274536 11.3376 0.274536C7.0098 0.274536 3.02239 0.470695 0.627686 0.665695V19.3691H6.64944V3.4818C7.75787 3.36442 8.95699 3.23081 11.3646 3.23081C14.464 3.23081 16.0328 4.24365 16.0328 6.00638C16.0328 7.51502 15.3833 9.31983 8.43403 9.2538Z" fill="white"/>
<path fill-rule="evenodd" clip-rule="evenodd" d="M2.53733 36.7372H3.60473C5.20524 36.7372 6.75103 35.5614 6.75103 33.5071C6.75103 31.4521 5.20524 30.2763 3.60473 30.2763H2.53733V36.7372ZM0.622192 28.7897H3.23577C6.1632 28.7897 8.74903 29.7627 8.74903 33.5071C8.74903 37.2507 6.1632 38.2238 3.23577 38.2238H0.622192V28.7897Z" fill="#6F8F9D"/>
<path fill-rule="evenodd" clip-rule="evenodd" d="M13.4947 36.9801C14.904 36.9801 15.2734 35.7375 15.2734 34.5744C15.2734 33.5071 14.6992 32.5063 13.4947 32.5063C12.3045 32.5063 11.7308 33.5334 11.7308 34.5744C11.7308 35.7236 12.0993 36.9801 13.4947 36.9801ZM13.4947 31.1007C15.588 31.1007 17.1889 32.4927 17.1889 34.7906C17.1889 36.7916 15.8346 38.386 13.4947 38.386C11.1695 38.386 9.81445 36.7916 9.81445 34.7906C9.81445 32.4927 11.4154 31.1007 13.4947 31.1007Z" fill="#6F8F9D"/>
<path fill-rule="evenodd" clip-rule="evenodd" d="M23.1255 32.7634C22.7972 32.6151 22.4416 32.5063 21.8803 32.5063C20.7453 32.5063 20.0203 33.3986 20.0203 34.7099C20.0203 35.9939 20.6355 36.9801 21.9217 36.9801C22.4416 36.9801 23.0165 36.7916 23.3307 36.6557L23.4132 38.1566C22.8797 38.3188 22.3325 38.386 21.5797 38.386C19.2675 38.386 18.1047 36.8314 18.1047 34.7099C18.1047 32.6958 19.3085 31.1007 21.511 31.1007C22.25 31.1007 22.7835 31.1822 23.2897 31.3305L23.1255 32.7634Z" fill="#6F8F9D"/>
<path fill-rule="evenodd" clip-rule="evenodd" d="M31.0315 38.2239H29.2942V37.2782H29.2668C28.7064 37.954 27.9126 38.386 26.9554 38.386C25.2857 38.386 24.5607 37.2238 24.5607 35.656V31.2629H26.3941V34.9803C26.3941 35.8317 26.4078 36.9801 27.5842 36.9801C28.9119 36.9801 29.1988 35.5614 29.1988 34.6695V31.2629H31.0315V38.2239Z" fill="#6F8F9D"/>
<path fill-rule="evenodd" clip-rule="evenodd" d="M32.8231 31.2629H34.5331V32.2363H34.5608C35.1354 31.3849 35.9698 31.1007 36.6538 31.1007C37.6395 31.1007 38.3372 31.4656 38.7335 32.3306C39.1579 31.4926 40.0745 31.1007 40.9363 31.1007C42.674 31.1007 43.1661 32.2773 43.1661 33.8315V38.2238H41.3326V34.0744C41.3326 33.4257 41.3326 32.5063 40.2793 32.5063C39.0614 32.5063 38.9113 33.9392 38.9113 34.8451V38.2238H37.0782V34.0744C37.0782 33.4257 37.0782 32.5063 36.0249 32.5063C34.8074 32.5063 34.657 33.9392 34.657 34.8451V38.2238H32.8231V31.2629Z" fill="#6F8F9D"/>
<path fill-rule="evenodd" clip-rule="evenodd" d="M49.3626 34.0608C49.3074 33.182 48.8967 32.4255 47.8707 32.4255C46.8447 32.4255 46.3249 33.1287 46.2424 34.0608H49.3626ZM50.5937 37.8323C49.9226 38.1968 49.157 38.386 48.1717 38.386C45.8465 38.386 44.4915 37.0615 44.4915 34.7771C44.4915 32.7634 45.5725 31.1007 47.7617 31.1007C50.3748 31.1007 51.1135 32.8715 51.1135 35.3042H46.2424C46.3249 36.4267 47.1183 37.0615 48.2541 37.0615C49.1433 37.0615 49.9097 36.7372 50.5937 36.3588V37.8323Z" fill="#6F8F9D"/>
<path fill-rule="evenodd" clip-rule="evenodd" d="M52.4807 31.2629H54.2184V32.2093H54.2458C54.8207 31.4119 55.6001 31.1007 56.558 31.1007C58.2269 31.1007 58.9519 32.2634 58.9519 33.8315V38.2238H57.1185V34.5072C57.1185 33.6558 57.1044 32.5063 55.9284 32.5063C54.6014 32.5063 54.3138 33.9257 54.3138 34.8181V38.2238H52.4807V31.2629Z" fill="#6F8F9D"/>
<path fill-rule="evenodd" clip-rule="evenodd" d="M61.3724 32.5877H60.0186V31.2629H61.3724V29.8713L63.2055 29.2897V31.2629H64.8338V32.5877H63.2055V35.8317C63.2055 36.4267 63.3704 36.9801 64.0681 36.9801C64.3964 36.9801 64.7107 36.9129 64.9026 36.7916L64.9565 38.2238C64.5742 38.3323 64.1498 38.386 63.6022 38.386C62.1659 38.386 61.3724 37.5072 61.3724 36.1286V32.5877Z" fill="#6F8F9D"/>
<path fill-rule="evenodd" clip-rule="evenodd" d="M76.8722 38.0887C76.1741 38.2508 75.4217 38.386 74.6963 38.386C71.6048 38.386 69.4567 36.8588 69.4567 33.6693C69.4567 30.4385 71.4543 28.6275 74.6963 28.6275C75.3264 28.6275 76.1604 28.7491 76.8581 29.019L76.7217 30.6142C75.9963 30.2091 75.3393 30.1141 74.6553 30.1141C72.6858 30.1141 71.4543 31.6015 71.4543 33.5334C71.4543 35.4529 72.6581 36.8994 74.6963 36.8994C75.4491 36.8994 76.3383 36.7372 76.7897 36.5074L76.8722 38.0887Z" fill="#6F8F9D"/>
<path fill-rule="evenodd" clip-rule="evenodd" d="M82.4667 34.0608C82.4116 33.182 82.0012 32.4255 80.9753 32.4255C79.9493 32.4255 79.4295 33.1287 79.347 34.0608H82.4667ZM83.6979 37.8323C83.0272 38.1968 82.2616 38.386 81.2758 38.386C78.9507 38.386 77.5956 37.0615 77.5956 34.7771C77.5956 32.7634 78.6767 31.1007 80.8658 31.1007C83.479 31.1007 84.2181 32.8715 84.2181 35.3042H79.347C79.4295 36.4267 80.2225 37.0615 81.3583 37.0615C82.2479 37.0615 83.0139 36.7372 83.6979 36.3588V37.8323Z" fill="#6F8F9D"/>
<path fill-rule="evenodd" clip-rule="evenodd" d="M85.5853 31.2629H87.3226V32.2093H87.3499C87.9249 31.4119 88.7042 31.1007 89.6622 31.1007C91.3311 31.1007 92.0561 32.2634 92.0561 33.8315V38.2238H90.2226V34.5072C90.2226 33.6558 90.209 32.5063 89.0325 32.5063C87.7056 32.5063 87.4179 33.9257 87.4179 34.8181V38.2238H85.5853V31.2629Z" fill="#6F8F9D"/>
<path fill-rule="evenodd" clip-rule="evenodd" d="M94.477 32.5877H93.1227V31.2629H94.477V29.8713L96.3097 29.2897V31.2629H97.938V32.5877H96.3097V35.8317C96.3097 36.4267 96.4746 36.9801 97.1723 36.9801C97.5006 36.9801 97.8152 36.9129 98.0067 36.7916L98.0611 38.2238C97.6784 38.3323 97.254 38.386 96.7068 38.386C95.27 38.386 94.477 37.5072 94.477 36.1286V32.5877Z" fill="#6F8F9D"/>
<path fill-rule="evenodd" clip-rule="evenodd" d="M103.547 34.0608C103.491 33.182 103.081 32.4255 102.055 32.4255C101.029 32.4255 100.509 33.1287 100.426 34.0608H103.547ZM104.778 37.8323C104.107 38.1968 103.341 38.386 102.356 38.386C100.031 38.386 98.6755 37.0615 98.6755 34.7771C98.6755 32.7634 99.7562 31.1007 101.946 31.1007C104.559 31.1007 105.298 32.8715 105.298 35.3042H100.426C100.509 36.4267 101.302 37.0615 102.438 37.0615C103.327 37.0615 104.094 36.7372 104.778 36.3588V37.8323Z" fill="#6F8F9D"/>
<mask id="mask0_98_652" style="mask-type:luminance" maskUnits="userSpaceOnUse" x="0" y="31" width="111" height="21">
<path d="M0.0234375 31.1007H110.851V51.9989H0.0234375V31.1007Z" fill="white"/>
</mask>
<g mask="url(#mask0_98_652)">
<path fill-rule="evenodd" clip-rule="evenodd" d="M106.706 31.2629H108.334V32.8441H108.361C108.443 32.1958 109.195 31.1007 110.29 31.1007C110.468 31.1007 110.66 31.1007 110.851 31.1548V32.98C110.687 32.8851 110.359 32.8306 110.031 32.8306C108.539 32.8306 108.539 34.6694 108.539 35.6695V38.2238H106.706V31.2629Z" fill="#6F8F9D"/>
</g>
</g>
<defs>
<clipPath id="clip0_98_652">
<rect width="111" height="39" fill="white"/>
</clipPath>
</defs>
</svg>
